<svg width="444" height="527" viewBox="0 0 444 527" fill="none" xmlns="http://www.w3.org/2000/svg">
<path fill-rule="evenodd" clip-rule="evenodd" d="M191.466 4.3C191.274 4.7805 191.427 6.766 191.807 8.712C192.186 10.658 192.581 13.2625 192.686 14.5C192.79 15.7375 193.218 19.7875 193.636 23.5C194.054 27.2125 194.548 37.1125 194.734 45.5C195.299 70.977 196.152 87.9725 197.05 91.6105C197.37 92.909 197.485 94.8215 197.304 95.8605C197.124 96.8995 197.221 99.4 197.52 101.416C197.819 103.433 197.932 105.288 197.77 105.54C197.306 106.263 194.068 103.876 192.263 101.48L190.618 99.2955L191.754 97.3965C192.777 95.686 192.892 94.7665 192.917 88.124C192.932 83.999 192.668 79.6485 192.318 78.25C191.974 76.875 191.507 69.45 191.279 61.75C190.531 36.4245 189.916 26.7845 188.932 24.9225C187.765 22.717 187.685 22.6545 187.119 23.5145C186.419 24.579 186.525 53.9175 187.272 66C187.982 77.471 187.893 90.899 187.082 94.876C186.601 97.2315 186.657 97.638 187.63 98.828C188.669 100.099 188.676 100.196 187.799 101.129C187.294 101.664 186.18 102.446 185.321 102.866C179.576 105.677 167.976 115.726 163.483 121.782C159.348 127.356 157.314 134.503 158.492 139.32C158.819 140.657 159.186 144.721 159.307 148.353C159.428 151.985 159.775 155.402 160.077 155.945C160.381 156.489 160.631 158.13 160.634 159.592C160.638 161.054 161.242 164.275 161.976 166.75C162.71 169.225 163.498 172.6 163.728 174.25C163.956 175.9 164.547 180.099 165.04 183.581C165.931 189.888 165.931 189.924 164.811 192.831C164.192 194.436 163.151 196.538 162.498 197.5C161.845 198.462 161.022 200.092 160.67 201.121C160.108 202.764 158.894 204.523 154.02 210.75C153.375 211.575 152.389 213.195 151.828 214.35C151.088 215.877 150.199 216.745 148.572 217.527C147.34 218.12 145.397 219.439 144.253 220.458C142.328 222.174 136.234 226 135.427 226C135.232 226 132.851 227.013 130.134 228.25C127.417 229.487 125.081 230.5 124.941 230.5C124.801 230.5 123.69 231.16 122.471 231.967C121.252 232.773 118.753 233.918 116.919 234.509C113.169 235.719 110.872 236.953 109.39 238.555C108.276 239.759 102.641 242.499 101.277 242.499C100.798 242.5 99.7442 243.037 98.9333 243.693C98.1229 244.349 96.6024 245.23 95.5549 245.651C94.5075 246.072 93.2729 246.971 92.8112 247.648C91.3848 249.742 86.1922 252.5 83.6757 252.5C81.0854 252.5 78.375 253.944 77.116 255.994C76.2583 257.391 74.4591 258.5 73.0519 258.5C72.6584 258.5 71.2814 259.275 69.9922 260.221C68.703 261.168 65.9593 262.507 63.8951 263.198C61.5371 263.986 59.5441 265.042 58.532 266.039C56.7687 267.776 51.2653 271 50.0624 271C49.647 271 48.4473 271.797 47.3962 272.771C44.8765 275.105 37.3421 281 36.8784 281C36.6783 281 36.2198 281.684 35.8601 282.519C35.5003 283.355 34.7814 284.257 34.2626 284.524C32.7546 285.3 30.6701 289.804 30.6701 292.286C30.6701 293.498 30.1055 295.898 29.4152 297.62C28.7254 299.342 27.681 302.325 27.0947 304.25C26.042 307.705 24.7835 310 23.9408 310C23.7028 310 23.3545 309.212 23.1668 308.25C22.608 305.386 21.1291 305.897 16.2827 310.625C13.9575 312.894 11.2138 315.987 10.1861 317.5C9.15839 319.013 7.8453 320.816 7.26828 321.507C5.34751 323.807 4.43312 342.059 5.32671 360.25C5.4889 363.55 5.67812 385.6 5.74674 409.25C5.86578 450.083 5.82315 452.381 4.90513 454.844C3.99127 457.294 3.98711 457.489 4.8282 458.383C5.97234 459.599 6.03057 467.358 4.928 471.75C3.83064 476.122 3.91849 476.783 5.69008 477.489C7.56823 478.237 7.80527 479.101 6.92935 482C6.55508 483.237 6.24682 486.31 6.2437 488.828C6.23798 493.349 6.21511 493.432 4.35983 495.578C3.32692 496.773 2.1573 497.93 1.76067 498.15C0.64875 498.766 0.905027 500.394 2.29714 501.559C3.83948 502.849 4.32448 504.515 3.65234 506.216C3.26194 507.204 2.78266 507.5 1.57249 507.5C0.329573 507.5 0 507.717 0 508.534C0 509.34 0.228726 509.498 1.03966 509.25C3.25882 508.572 5.38182 510.332 4.11551 511.8C3.79581 512.17 2.73899 512.617 1.76743 512.792C0.106566 513.092 0 513.233 0 515.114C0 516.82 0.143474 517.08 0.965847 516.873C1.49711 516.74 2.28466 516.82 2.71612 517.053C3.42101 517.432 5.16349 522.045 5.95415 525.625L6.25773 527H12.5243H18.7903L21.4815 524.17C27.8521 517.471 32.3595 508.815 39.5347 489.5C40.7096 486.338 42.6075 481.275 43.7516 478.25C45.7665 472.924 46.3607 471.113 48.1775 464.75C48.6484 463.1 49.5618 460.145 50.2074 458.183C50.8525 456.222 51.9982 452.172 52.7535 449.183C53.8519 444.837 54.6878 442.849 56.9319 439.25C58.4748 436.775 60.9752 433.492 62.4879 431.954C64.7481 429.657 65.9344 428.914 69.1376 427.793C74.5745 425.891 80.8608 422.741 83.6643 420.514C85.8736 418.759 88.6323 417.5 90.2682 417.5C91.6364 417.5 90.9461 419.971 88.6937 423.135C87.4414 424.895 85.9172 427.328 85.3064 428.542C83.407 432.318 80.0052 438.181 78.8023 439.75C76.3352 442.97 75.2378 445.688 75.1687 448.754C75.0969 451.905 73.8753 454.418 70.5495 458.253C69.7536 459.17 68.7748 461.12 68.3745 462.586C67.9742 464.051 66.238 468.111 64.5153 471.608C62.793 475.105 60.7896 479.83 60.0634 482.108C59.3372 484.386 58.2762 486.925 57.706 487.75C57.1352 488.575 56.6663 489.7 56.6637 490.25C56.659 491.305 54.4139 495.726 51.9655 499.5C51.1629 500.737 50.1507 502.987 49.7162 504.5C48.2674 509.547 46.3092 514.177 44.7289 516.294C43.053 518.538 42.5446 519.628 41.0755 524.125L40.1362 527H225.921C376.266 527 411.707 526.878 411.707 526.362C411.707 525.728 407.877 520.232 404.469 515.973C401.269 511.976 386.794 498.616 379.834 493.237C373.213 488.12 365.671 483.846 358.39 481.086C353.943 479.4 344.283 478.333 336.331 478.65C312.744 479.589 303.514 480.091 300.982 480.573C299.41 480.873 296.252 481.191 293.965 481.28C291.677 481.369 287.034 481.905 283.647 482.471C280.258 483.037 276.716 483.5 275.774 483.5C274.832 483.5 272.574 483.927 270.757 484.448C268.94 484.969 265.933 485.523 264.074 485.68C262.216 485.837 259.409 486.316 257.836 486.745C256.264 487.174 253.574 487.742 251.858 488.008C248.771 488.485 244.165 489.39 239.642 490.41C238.356 490.701 235.432 491.319 233.144 491.784C228.43 492.743 225.484 493.463 219.889 495.023C217.744 495.621 212.832 496.989 208.972 498.064C202.627 499.831 199.682 500.69 188.699 503.985C186.84 504.542 184.15 505.313 182.721 505.698C178.784 506.758 162.536 512.202 157.29 514.218C154.739 515.198 152.218 516 151.688 516C150.592 516 149.711 514.187 149.711 511.927C149.711 511.099 149.089 508.924 148.328 507.095C147.1 504.143 146.958 503.185 147.059 498.547C147.168 493.483 148.4 486.927 149.708 484.44C150.053 483.786 152.592 481.108 155.352 478.49C159.619 474.44 160.898 472.819 163.92 467.625C165.873 464.267 168.142 461.009 168.961 460.385C169.78 459.761 172.603 458.013 175.233 456.5C179.263 454.182 180.351 453.267 182.148 450.682C183.321 448.995 185.294 446.295 186.534 444.682C194.375 434.481 199.556 423.11 200.75 413.478C201.405 408.192 201.214 406.819 199.543 404.775C198.523 403.528 198.177 403.417 196.155 403.683C193.663 404.012 189.973 405.676 185.732 408.384C183.569 409.766 182.805 410.031 182.323 409.567C181.84 409.103 181.915 408.44 182.654 406.609C184.573 401.86 187.803 390.196 188.915 384C191.392 370.2 192.067 341.335 190.056 335.25C189.602 333.875 189.223 331.85 189.216 330.75C189.192 327.46 186.329 315.246 183.766 307.5C182.447 303.513 179.938 297.213 178.191 293.5C176.444 289.787 173.766 284.092 172.239 280.844C169.558 275.136 168.935 273 169.949 273C170.591 273 176.551 278.983 179.663 282.75C181.026 284.4 183.06 286.834 184.182 288.159C185.304 289.485 188.371 293.647 190.998 297.409C198.296 307.862 199.924 310.059 203.137 313.797C206.099 317.243 211.571 324.822 211.571 325.479C211.571 325.67 210.947 327.496 210.185 329.538C207.544 336.604 208.006 346.148 211.294 352.481C215.225 360.053 216.708 361.898 220.151 363.501C222.513 364.601 224.323 364.784 224.843 363.975C225.029 363.687 225.452 362.41 225.784 361.138C226.115 359.867 226.656 358.742 226.986 358.638C227.837 358.37 229.138 362.482 230.203 368.815C230.9 372.956 231.317 374.283 231.957 374.401C233.079 374.609 233.252 373.874 233.927 366C234.808 355.717 233.233 331.84 231.336 326.75C229.885 322.852 228.521 315.549 228.537 311.75C228.544 309.842 228.986 307.658 229.748 305.75L230.947 302.75L229.008 297.806C226.354 291.039 226.485 290.293 232.858 275.884C236.603 267.416 238.394 265.126 243.533 262.236C248.565 259.405 251.083 256.563 252.823 251.75C256.806 240.734 256.599 241.094 261.818 236.148C267.873 230.409 268.632 230.191 274.661 232.455C279.644 234.326 288.842 236.992 290.329 236.997C291.917 237.001 300.392 234.313 303.322 232.874C308.344 230.409 309.215 228.534 307.443 224C306.959 222.763 306.393 220.737 306.184 219.5C305.976 218.263 305.493 216.188 305.11 214.89C304.495 212.806 304.517 212.321 305.298 210.748C305.783 209.768 306.181 208.123 306.181 207.091C306.181 205.788 306.745 204.384 308.031 202.483C310.187 199.301 310.169 198.056 307.896 192.732C306.811 190.19 306.614 189.191 306.994 188.157C307.451 186.915 312.152 182.976 317.929 178.995C321.659 176.424 321.646 174.988 317.821 167.246C313.418 158.335 312.996 157.84 306.857 154.395C303.269 152.382 301.502 151.1 301.502 150.509C301.502 150.024 301.994 148.559 302.594 147.253C304.184 143.795 303.943 141.236 301.002 130.35C298.765 122.069 296.26 117.549 290.615 111.614C288.071 108.939 284.913 105.962 283.597 105C282.281 104.038 279.651 102.054 277.753 100.592C275.855 99.1305 273.16 97.3775 271.764 96.697C265.042 93.421 246.373 90.464 244.223 92.335C243.705 92.786 243.281 93.7765 243.281 94.5365C243.281 96.6565 242.763 97.5 241.462 97.5C240.206 97.5 239.642 96.657 239.642 94.7795C239.642 93.702 238.045 90.3825 235.66 86.5C235.068 85.5375 232.989 82.1625 231.039 79C229.089 75.8375 225.995 70.4375 224.162 67C218.144 55.708 215.624 51.312 212.482 46.622C210.777 44.0765 209.189 41.264 208.953 40.372C208.425 38.375 205.405 31.374 204.046 29C203.496 28.0375 202.427 25.45 201.671 23.25C200.915 21.05 199.527 17.675 198.585 15.75C197.644 13.825 196.141 10.34 195.247 8.0055C193.613 3.7405 192.23 2.385 191.466 4.3ZM288.414 140.835C292.379 143.011 292.782 143.479 292.414 145.484C291.596 149.938 291.125 150.001 287.628 146.125C284.533 142.694 283.725 141.34 284.146 140.286C284.59 139.172 285.627 139.305 288.414 140.835Z" fill="black"/>
</svg>
