<svg width="466" height="424" viewBox="0 0 466 424" fill="none" xmlns="http://www.w3.org/2000/svg">
<path fill-rule="evenodd" clip-rule="evenodd" d="M199 2C199 3.1 199.225 4 199.5 4C199.778 4 200 5.3335 200 7C200 8.6665 200.222 10 200.5 10C200.785 10 201 11.5 201 13.5C201 15.5 201.215 17 201.5 17C201.785 17 202 18.5 202 20.5C202 22.5 202.215 24 202.5 24C202.785 24 203 25.5 203 27.5C203 29.5 203.215 31 203.5 31C203.785 31 204 32.5 204 34.5C204 36.5 204.215 38 204.5 38C205.267 38 205.094 41.478 204.286 42.2855C203.475 43.097 199 43.2785 199 42.5C199 42.225 198.6 42 198.111 42C197.621 42 196.896 41.55 196.5 41C196.076 40.413 195.205 40 194.389 40C193.625 40 193 39.775 193 39.5C193 39.225 192.55 39 192 39C191.45 39 191 38.775 191 38.5C191 38.225 190.55 38 190 38C189.45 38 189 37.775 189 37.5C189 37.225 188.325 37 187.5 37C186.675 37 186 36.775 186 36.5C186 36.225 185.55 36 185 36C184.45 36 184 35.775 184 35.5C184 35.225 183.325 35 182.5 35C181.675 35 181 34.775 181 34.5C181 34.225 180.325 34 179.5 34C178.675 34 178 33.775 178 33.5C178 33.225 177.325 33 176.5 33C175.675 33 175 32.775 175 32.5C175 32.225 174.325 32 173.5 32C172.675 32 172 31.775 172 31.5C172 31.225 171.325 31 170.5 31C169.675 31 169 30.775 169 30.5C169 30.225 168.1 30 167 30C165.9 30 165 29.775 165 29.5C165 29.225 164.1 29 163 29C161.9 29 161 28.775 161 28.5C161 28.225 160.1 28 159 28C157.9 28 157 27.775 157 27.5C157 27.225 155.875 27 154.5 27C153.125 27 152 26.775 152 26.5C152 26.222 150.666 26 149 26C147.334 26 146 25.778 146 25.5C146 25.2145 144.5 25 142.5 25C138.839 25 138.337 25.301 140 26.5C140.55 26.8965 141 27.521 141 27.888C141 28.255 142.35 29.8805 144 31.5C145.65 33.1195 147 34.6995 147 35.0115C147 35.3235 147.9 36.443 149 37.5C150.1 38.557 151 39.6865 151 40.01C151 40.334 151.675 41.2295 152.5 42C153.325 42.7705 154 43.6705 154 44C154 44.3295 154.675 45.2295 155.5 46C156.325 46.7705 157 47.7115 157 48.09C157 48.469 157.45 49.1035 158 49.5C158.55 49.8965 159 50.5715 159 51C159 51.4285 159.45 52.1035 160 52.5C160.55 52.8965 161 53.5715 161 54C161 54.4285 161.45 55.1035 162 55.5C162.55 55.8965 163 56.621 163 57.1105C163 57.5995 163.225 58 163.5 58C163.775 58 164 58.45 164 59C164 59.55 164.225 60 164.5 60C164.775 60 165 60.45 165 61C165 61.55 165.225 62 165.5 62C165.775 62 166 62.225 166 62.5C166 62.775 165.55 63 165 63C164.45 63 164 62.775 164 62.5C164 62.225 162.875 62 161.5 62C160.125 62 159 61.775 159 61.5C159 61.2145 157.5 61 155.5 61C153.5 61 152 60.7855 152 60.5C152 60.222 150.666 60 149 60C147.334 60 146 59.778 146 59.5C146 59.2085 144.333 59 142 59C139.667 59 138 58.7915 138 58.5C138 58.2 136 58 133 58C130 58 128 57.8 128 57.5C128 57.185 124.667 57 119 57C114.05 57 110 57.1225 110 57.2725C110 57.788 112.455 60 113.026 60C113.341 60 114.229 60.675 115 61.5C115.771 62.325 116.711 63 117.09 63C117.469 63 118.104 63.45 118.5 64C118.896 64.55 119.526 65 119.899 65C120.273 65 121.443 65.9 122.5 67C123.557 68.1 124.727 69 125.1 69C125.474 69 126.104 69.45 126.5 70C126.896 70.55 127.526 71 127.9 71C128.273 71 129.443 71.9 130.5 73C131.557 74.1 132.682 75 133 75C133.318 75 134.443 75.9 135.5 77C136.557 78.1 137.669 79 137.971 79C138.274 79 139.755 80.2325 141.261 81.739C144.527 85.005 144.997 87 142.5 87C141.675 87 141 87.225 141 87.5C141 87.775 140.1 88 139 88C137.9 88 137 88.225 137 88.5C137 88.775 135.875 89 134.5 89C133.125 89 132 89.225 132 89.5C132 89.775 131.1 90 130 90C128.9 90 128 90.225 128 90.5C128 90.775 127.1 91 126 91C124.9 91 124 91.225 124 91.5C124 91.775 123.325 92 122.5 92C121.675 92 121 92.225 121 92.5C121 92.775 120.325 93 119.5 93C118.675 93 118 93.225 118 93.5C118 93.775 117.325 94 116.5 94C115.675 94 115 94.225 115 94.5C115 94.775 114.325 95 113.5 95C112.675 95 112 95.225 112 95.5C112 95.775 111.55 96 111 96C110.45 96 110 96.225 110 96.5C110 96.775 109.325 97 108.5 97C107.675 97 107 97.225 107 97.5C107 97.775 106.55 98 106 98C105.45 98 105 98.225 105 98.5C105 98.775 104.325 99 103.5 99C102.675 99 102 99.225 102 99.5C102 99.775 101.647 100 101.215 100C100.457 100 99 101.128 99 101.715C99 101.872 100.125 102 101.5 102C102.875 102 104 102.225 104 102.5C104 102.792 105.667 103 108 103C110.333 103 112 103.208 112 103.5C112 103.778 113.334 104 115 104C116.666 104 118 104.222 118 104.5C118 104.778 119.334 105 121 105C122.666 105 124 105.222 124 105.5C124 105.775 125.125 106 126.5 106C127.875 106 129 106.225 129 106.5C129 106.775 129.9 107 131 107C132.1 107 133 107.225 133 107.5C133 107.775 133.354 108 133.786 108C134.218 108 134.893 108.322 135.286 108.715C136.105 109.534 136.243 111 135.5 111C135.225 111 135 111.359 135 111.799C135 112.239 134.325 113.229 133.5 114C132.675 114.771 132 115.711 132 116.09C132 116.469 131.55 117.104 131 117.5C130.45 117.896 130 118.572 130 119C130 119.428 129.55 120.104 129 120.5C128.45 120.896 128 121.572 128 122C128 122.428 127.55 123.104 127 123.5C126.45 123.896 126 124.572 126 125C126 125.428 125.55 126.104 125 126.5C124.45 126.896 124 127.572 124 128C124 128.428 123.55 129.104 123 129.5C122.45 129.896 122 130.572 122 131C122 131.428 121.55 132.104 121 132.5C120.45 132.896 120 133.572 120 134C120 134.428 119.55 135.104 119 135.5C118.45 135.896 118 136.621 118 137.111C118 137.6 117.775 138 117.5 138C117.225 138 117 138.4 117 138.889C117 139.379 116.55 140.104 116 140.5C115.45 140.896 115 141.621 115 142.111C115 142.6 114.775 143 114.5 143C114.225 143 114 143.45 114 144C114 144.55 113.775 145 113.5 145C113.225 145 113 145.225 113 145.5C113 146.384 114.756 146.033 115.5 145C115.896 144.45 116.621 144 117.11 144C117.599 144 118 143.775 118 143.5C118 143.225 118.401 143 118.89 143C119.379 143 120.104 142.55 120.5 142C120.896 141.45 121.621 141 122.11 141C122.599 141 123 140.775 123 140.5C123 140.225 123.45 140 124 140C124.55 140 125 139.775 125 139.5C125 139.225 125.45 139 126 139C126.55 139 127 138.775 127 138.5C127 138.225 127.45 138 128 138C128.55 138 129 137.775 129 137.5C129 137.225 129.45 137 130 137C130.55 137 131 136.775 131 136.5C131 136.225 131.45 136 132 136C132.55 136 133 135.775 133 135.5C133 135.225 133.45 135 134 135C134.55 135 135 134.775 135 134.5C135 134.225 135.675 134 136.5 134C137.325 134 138 133.775 138 133.5C138 133.225 138.675 133 139.5 133C140.325 133 141 132.775 141 132.5C141 132.225 141.675 132 142.5 132C143.325 132 144 131.775 144 131.5C144 131.225 144.656 131 145.458 131C146.26 131 147.017 130.719 147.14 130.375C147.262 130.032 147.533 129.908 147.741 130.101C148.247 130.571 146.776 132 145.786 132C145.354 132 145 132.225 145 132.5C145 132.775 144.655 133 144.234 133C143.238 133 140 136.238 140 137.233C140 137.655 139.775 138 139.5 138C139.225 138 139 138.675 139 139.5C139 140.325 138.775 141 138.5 141C138.225 141 138 141.675 138 142.5C138 143.325 137.775 144 137.5 144C137.225 144 137 144.675 137 145.5C137 146.325 136.775 147 136.5 147C136.225 147 136 147.675 136 148.5C136 149.325 135.775 150 135.5 150C135.225 150 135 150.675 135 151.5C135 152.325 134.775 153 134.5 153C134.225 153 134 153.675 134 154.5C134 155.325 133.775 156 133.5 156C133.225 156 133 156.675 133 157.5C133 158.325 132.775 159 132.5 159C132.225 159 132 159.9 132 161C132 162.1 131.775 163 131.5 163C131.225 163 131 163.675 131 164.5C131 165.325 130.775 166 130.5 166C130.225 166 130 166.9 130 168C130 169.1 129.775 170 129.5 170C129.225 170 129 170.9 129 172C129 173.1 129.129 174 129.286 174C129.786 174 131 172.593 131 172.014C131 171.708 132.8 169.677 135 167.5C137.2 165.323 139 163.295 139 162.993C139 162.691 140.35 161.12 142 159.5C143.65 157.88 145 156.306 145 156C145 155.694 146.35 154.12 148 152.5C149.65 150.88 151 149.306 151 149C151 148.694 152.35 147.12 154 145.5C155.65 143.88 157 142.307 157 142.004C157 141.7 158.575 139.898 160.5 138C162.425 136.102 164 134.298 164 133.991C164 133.685 165.125 132.339 166.5 131C167.875 129.661 169 128.315 169 128.009C169 127.45 171.22 125 171.727 125C172.43 125 171.89 126.859 171 127.5C170.45 127.896 170 128.621 170 129.111C170 129.6 169.775 130 169.5 130C169.225 130 169 130.4 169 130.889C169 131.379 168.55 132.104 168 132.5C167.45 132.896 167 133.621 167 134.111C167 134.6 166.775 135 166.5 135C166.225 135 166 135.4 166 135.889C166 136.379 165.55 137.104 165 137.5C164.45 137.896 164 138.621 164 139.111C164 139.6 163.775 140 163.5 140C163.225 140 163 140.45 163 141C163 141.55 162.775 142 162.5 142C162.225 142 162 142.4 162 142.889C162 143.379 161.55 144.104 161 144.5C160.45 144.896 160 145.621 160 146.111C160 146.6 159.775 147 159.5 147C159.225 147 159 147.45 159 148C159 148.55 158.775 149 158.5 149C158.222 149 158 150.334 158 152C158 153.666 157.778 155 157.5 155C157.194 155 157 157.333 157 161C157 164.667 156.806 167 156.5 167C156.201 167 156 168.986 156 171.958C156 175.472 155.818 176.982 155.375 177.14C155.032 177.263 154.908 177.533 155.101 177.741C155.571 178.247 157 176.775 157 175.785C157 175.353 157.225 175 157.5 175C157.775 175 158 174.325 158 173.5C158 172.675 158.225 172 158.5 172C158.775 172 159 171.55 159 171C159 170.45 159.225 170 159.5 170C159.775 170 160 169.55 160 169C160 168.45 160.225 168 160.5 168C160.775 168 161 167.55 161 167C161 166.45 161.225 166 161.5 166C161.775 166 162 165.55 162 165C162 164.45 162.225 164 162.5 164C162.775 164 163 163.55 163 163C163 162.45 163.225 162 163.5 162C163.775 162 164 161.6 164 161.111C164 160.621 164.45 159.896 165 159.5C165.55 159.104 166 158.379 166 157.889C166 157.4 166.225 157 166.5 157C166.775 157 167 156.55 167 156C167 155.45 167.225 155 167.5 155C167.775 155 168 154.6 168 154.111C168 153.621 168.45 152.896 169 152.5C169.55 152.104 170 151.379 170 150.889C170 150.4 170.225 150 170.5 150C170.775 150 171 149.6 171 149.111C171 148.621 171.45 147.896 172 147.5C172.55 147.104 173 146.428 173 146C173 145.572 173.45 144.896 174 144.5C174.55 144.104 175 143.469 175 143.09C175 142.711 175.675 141.771 176.5 141C177.325 140.229 178 139.289 178 138.91C178 138.531 178.45 137.896 179 137.5C179.55 137.104 180 136.474 180 136.1C180 135.727 180.9 134.557 182 133.5C183.1 132.443 184 131.326 184 131.017C184 130.708 184.552 129.903 185.227 129.228C186.409 128.045 186.703 128 193.227 128C197.409 128 200 127.808 200 127.5C200 127.181 204.167 127 211.5 127C218.833 127 223 126.819 223 126.5C223 126.181 227.333 126 235 126C242.667 126 247 126.181 247 126.5C247 126.812 250 127 255 127C260 127 263 127.188 263 127.5C263 127.785 264.5 128 266.5 128C268.5 128 270 128.215 270 128.5C270 128.778 271.334 129 273 129C275.543 129 276 129.135 276 129.889C276 130.379 276.45 131.104 277 131.5C277.55 131.896 278 132.572 278 133C278 133.428 278.45 134.104 279 134.5C279.55 134.896 280 135.621 280 136.111C280 136.6 280.225 137 280.5 137C280.775 137 281 137.4 281 137.889C281 138.379 281.45 139.104 282 139.5C282.55 139.896 283 140.572 283 141C283 141.428 283.45 142.104 284 142.5C284.55 142.896 285 143.572 285 144C285 144.428 285.45 145.104 286 145.5C286.55 145.896 287 146.621 287 147.111C287 147.6 287.225 148 287.5 148C287.775 148 288 148.4 288 148.889C288 149.379 288.45 150.104 289 150.5C289.55 150.896 290 151.572 290 152C290 152.428 290.45 153.104 291 153.5C291.55 153.896 292 154.621 292 155.111C292 155.6 292.225 156 292.5 156C292.775 156 293 156.4 293 156.889C293 157.379 293.45 158.104 294 158.5C294.55 158.896 295 159.621 295 160.111C295 160.6 295.225 161 295.5 161C295.775 161 296 161.4 296 161.889C296 162.379 296.45 163.104 297 163.5C297.55 163.896 298 164.621 298 165.111C298 165.6 298.225 166 298.5 166C298.775 166 299 166.4 299 166.889C299 167.379 299.45 168.104 300 168.5C300.55 168.896 301 169.621 301 170.111C301 170.6 301.225 171 301.5 171C301.775 171 302 171.45 302 172C302 172.55 302.225 173 302.5 173C302.775 173 303 173.45 303 174C303 174.55 303.225 175 303.5 175C303.775 175 304 175.4 304 175.889C304 176.379 304.45 177.104 305 177.5C305.55 177.896 306 178.621 306 179.111C306 179.6 306.225 180 306.5 180C306.775 180 307 180.45 307 181C307 181.55 307.225 182 307.5 182C307.806 182 308 179.667 308 176C308 172.333 307.806 170 307.5 170C307.208 170 307 168.333 307 166C307 163.667 306.792 162 306.5 162C306.208 162 306 160.333 306 158C306 155.667 305.792 154 305.5 154C305.208 154 305 152.333 305 150C305 147.667 304.792 146 304.5 146C304.215 146 304 144.5 304 142.5C304 140.5 303.785 139 303.5 139C303.225 139 303 138.55 303 138C303 137.45 302.775 137 302.5 137C302.225 137 302 136.55 302 136C302 135.45 301.775 135 301.5 135C301.225 135 301 134.55 301 134C301 133.45 300.775 133 300.5 133C300.225 133 300 132.55 300 132C300 131.45 299.775 131 299.5 131C299.225 131 299 130.55 299 130C299 129.45 298.775 129 298.5 129C298.225 129 298 128.55 298 128C298 127.45 297.775 127 297.5 127C297.225 127 297 126.55 297 126C297 125.45 296.775 125 296.5 125C296.225 125 296 124.55 296 124C296 123.45 295.775 123 295.5 123C295.225 123 295 122.55 295 122C295 121.45 294.775 121 294.5 121C294.225 121 294 120.569 294 120.042C294 119.515 293.719 118.983 293.375 118.86C293.032 118.737 292.904 118.471 293.091 118.268C293.521 117.805 297 121.235 297 122.123C297 122.484 297.45 123.104 298 123.5C298.55 123.896 299 124.572 299 125C299 125.428 299.45 126.104 300 126.5C300.55 126.896 301 127.531 301 127.91C301 128.289 301.675 129.229 302.5 130C303.325 130.771 304 131.711 304 132.09C304 132.469 304.45 133.104 305 133.5C305.55 133.896 306 134.572 306 135C306 135.428 306.45 136.104 307 136.5C307.55 136.896 308 137.572 308 138C308 138.428 308.45 139.104 309 139.5C309.55 139.896 310 140.531 310 140.91C310 141.289 310.675 142.229 311.5 143C312.325 143.771 313 144.761 313 145.201C313 145.641 313.225 146 313.5 146C313.775 146 314 146.4 314 146.889C314 147.379 314.45 148.104 315 148.5C315.55 148.896 316 149.572 316 150C316 150.428 316.45 151.104 317 151.5C317.55 151.896 318 152.572 318 153C318 153.428 318.45 154.104 319 154.5C319.55 154.896 320 155.572 320 156C320 156.428 320.45 157.104 321 157.5C321.55 157.896 322 158.572 322 159C322 159.428 322.45 160.104 323 160.5C323.55 160.896 324 161.572 324 162C324 162.428 324.45 163.104 325 163.5C325.55 163.896 326 164.621 326 165.111C326 165.6 326.225 166 326.5 166C326.775 166 327 166.4 327 166.889C327 167.379 327.45 168.104 328 168.5C328.55 168.896 329 169.572 329 170C329 170.428 329.45 171.104 330 171.5C330.55 171.896 331 172.621 331 173.111C331 173.6 331.225 174 331.5 174C331.775 174 332 172.875 332 171.5C332 170.125 331.775 169 331.5 169C331.222 169 331 167.666 331 166C331 164.334 330.778 163 330.5 163C330.225 163 330 161.875 330 160.5C330 159.125 329.775 158 329.5 158C329.225 158 329 156.875 329 155.5C329 154.125 328.775 153 328.5 153C328.225 153 328 151.875 328 150.5C328 149.125 327.775 148 327.5 148C327.225 148 327 147.1 327 146C327 144.9 326.775 144 326.5 144C326.225 144 326 143.325 326 142.5C326 141.675 325.775 141 325.5 141C325.225 141 325 140.325 325 139.5C325 138.675 324.775 138 324.5 138C324.225 138 324 137.325 324 136.5C324 135.675 323.775 135 323.5 135C323.225 135 323 134.6 323 134.111C323 133.621 322.55 132.896 322 132.5C321.45 132.104 321 131.469 321 131.09C321 130.711 320.325 129.771 319.5 129C318.039 127.635 317.494 126 318.5 126C318.775 126 319 126.225 319 126.5C319 126.775 319.45 127 320 127C320.55 127 321 127.225 321 127.5C321 127.775 321.352 128 321.783 128C322.213 128 323.661 129.125 325 130.5C326.339 131.875 327.737 133 328.107 133C328.477 133 329.104 133.45 329.5 134C329.896 134.55 330.572 135 331 135C331.428 135 332.104 135.45 332.5 136C332.896 136.55 333.572 137 334 137C334.428 137 335.104 137.45 335.5 138C335.896 138.55 336.621 139 337.111 139C337.6 139 338 139.225 338 139.5C338 139.775 338.4 140 338.889 140C339.379 140 340.104 140.45 340.5 141C340.896 141.55 341.621 142 342.111 142C342.6 142 343 142.225 343 142.5C343 142.775 343.4 143 343.889 143C344.379 143 345.104 143.45 345.5 144C345.896 144.55 346.621 145 347.111 145C347.6 145 348 145.225 348 145.5C348 145.775 348.4 146 348.889 146C349.379 146 350.104 146.45 350.5 147C350.896 147.55 351.621 148 352.111 148C352.6 148 353 148.225 353 148.5C353 148.775 353.225 149 353.5 149C354.689 149 353.818 147.257 351.5 145C350.125 143.661 349 142.313 349 142.005C349 141.697 347.65 140.12 346 138.5C344.35 136.88 343 135.317 343 135.025C343 134.34 324.674 116 323.99 116C323.471 116 319 111.756 319 111.263C319 111.119 319.45 111 320 111C320.55 111 321 111.225 321 111.5C321 111.775 321.45 112 322 112C322.55 112 323 112.225 323 112.5C323 112.775 323.675 113 324.5 113C325.325 113 326 113.225 326 113.5C326 113.792 327.667 114 330 114C332.333 114 334 113.792 334 113.5C334 113.225 334.45 113 335 113C335.55 113 336 112.775 336 112.5C336 112.225 336.675 112 337.5 112C338.325 112 339 111.775 339 111.5C339 111.225 339.675 111 340.5 111C341.325 111 342 110.775 342 110.5C342 110.225 342.45 110 343 110C343.55 110 344 109.775 344 109.5C344 109.225 344.45 109 345 109C345.55 109 346 108.775 346 108.5C346 108.225 346.675 108 347.5 108C348.325 108 349 107.775 349 107.5C349 107.225 349.675 107 350.5 107C351.325 107 352 106.775 352 106.5C352 106.225 352.578 106 353.285 106C354.444 106 356 105.017 356 104.285C356 104.128 355.55 104 355 104C354.45 104 354 103.775 354 103.5C354 103.225 353.55 103 353 103C352.45 103 352 102.775 352 102.5C352 102.225 351.55 102 351 102C350.45 102 350 101.775 350 101.5C350 101.225 349.55 101 349 101C348.45 101 348 100.775 348 100.5C348 100.225 347.325 100 346.5 100C345.675 100 345 99.775 345 99.5C345 99.225 344.55 99 344 99C343.45 99 343 98.775 343 98.5C343 98.225 342.55 98 342 98C341.45 98 341 97.775 341 97.5C341 97.225 340.325 97 339.5 97C338.675 97 338 96.775 338 96.5C338 96.225 337.55 96 337 96C336.45 96 336 95.775 336 95.5C336 95.225 335.55 95 335 95C334.45 95 334 94.775 334 94.5C334 94.225 333.325 94 332.5 94C331.675 94 331 93.775 331 93.5C331 93.225 330.55 93 330 93C329.45 93 329 92.775 329 92.5C329 92.225 328.325 92 327.5 92C326.675 92 326 91.775 326 91.5C326 91.225 325.422 91 324.715 91C323.16 91 322 89.9445 322 88.53C322 87.455 331.995 77 333.022 77C333.316 77 334.88 75.65 336.5 74C338.12 72.35 339.697 71 340.005 71C340.313 71 341.661 69.875 343 68.5C344.339 67.125 345.685 66 345.991 66C346.819 66 349 63.6605 349 62.7725C349 62.1125 347.981 62 342 62C337.667 62 335 62.1905 335 62.5C335 62.811 332.167 63 327.5 63C322.833 63 320 63.189 320 63.5C320 63.7965 318.167 64 315.5 64C312.833 64 311 64.2035 311 64.5C311 64.775 309.875 65 308.5 65C307.125 65 306 65.225 306 65.5C306 65.775 304.875 66 303.5 66C302.125 66 301 66.225 301 66.5C301 66.775 300.55 67 300 67C299.222 67 299 66.6665 299 65.5C299 64.675 299.225 64 299.5 64C299.775 64 300 63.55 300 63C300 62.45 300.225 62 300.5 62C300.775 62 301 61.55 301 61C301 60.45 301.225 60 301.5 60C301.775 60 302 59.55 302 59C302 58.45 302.225 58 302.5 58C302.775 58 303 57.55 303 57C303 56.45 303.225 56 303.5 56C303.775 56 304 55.55 304 55C304 54.45 304.225 54 304.5 54C304.775 54 305 53.55 305 53C305 52.45 305.225 52 305.5 52C305.775 52 306 51.55 306 51C306 50.45 306.225 50 306.5 50C306.775 50 307 49.55 307 49C307 48.45 307.225 48 307.5 48C307.775 48 308 47.55 308 47C308 46.45 308.225 46 308.5 46C308.775 46 309 45.55 309 45C309 44.45 309.225 44 309.5 44C309.775 44 310 43.55 310 43C310 42.45 310.225 42 310.5 42C310.775 42 311 41.55 311 41C311 40.45 311.225 40 311.5 40C311.775 40 312 39.5995 312 39.1105C312 38.621 312.45 37.8965 313 37.5C313.55 37.1035 314 36.379 314 35.8895C314 35.4005 314.225 35 314.5 35C314.775 35 315 34.55 315 34C315 33.45 315.225 33 315.5 33C315.775 33 316 32.55 316 32C316 31.45 316.225 31 316.5 31C316.775 31 317 30.325 317 29.5C317 28.675 316.775 28 316.5 28C316.225 28 316 28.225 316 28.5C316 28.775 315.325 29 314.5 29C313.675 29 313 29.225 313 29.5C313 29.775 312.1 30 311 30C309.9 30 309 30.225 309 30.5C309 30.775 308.325 31 307.5 31C306.675 31 306 31.225 306 31.5C306 31.775 305.325 32 304.5 32C303.675 32 303 32.225 303 32.5C303 32.775 302.55 33 302 33C301.45 33 301 33.225 301 33.5C301 33.775 300.325 34 299.5 34C298.675 34 298 34.225 298 34.5C298 34.775 297.325 35 296.5 35C295.675 35 295 35.225 295 35.5C295 35.775 294.55 36 294 36C293.45 36 293 36.225 293 36.5C293 36.775 292.325 37 291.5 37C290.675 37 290 37.225 290 37.5C290 37.775 289.55 38 289 38C288.45 38 288 38.225 288 38.5C288 38.775 287.325 39 286.5 39C285.675 39 285 39.225 285 39.5C285 39.775 284.55 40 284 40C283.45 40 283 40.225 283 40.5C283 40.775 282.55 41 282 41C281.45 41 281 41.225 281 41.5C281 41.775 280.325 42 279.5 42C278.675 42 278 42.225 278 42.5C278 42.775 277.55 43 277 43C276.45 43 276 43.225 276 43.5C276 43.775 275.55 44 275 44C274.45 44 274 44.225 274 44.5C274 44.775 273.325 45 272.5 45C271.675 45 271 45.225 271 45.5C271 45.775 270.55 46 270 46C269.45 46 269 46.225 269 46.5C269 46.775 268.55 47 268 47C267.45 47 267 47.225 267 47.5C267 47.775 266.55 48 266 48C265.222 48 265 47.6665 265 46.5C265 45.675 264.775 45 264.5 45C264.225 45 264 44.1 264 43C264 41.9 263.775 41 263.5 41C263.225 41 263 40.1 263 39C263 37.9 262.775 37 262.5 37C262.225 37 262 36.1 262 35C262 33.9 261.775 33 261.5 33C261.225 33 261 32.1 261 31C261 29.9 260.775 29 260.5 29C260.225 29 260 28.1 260 27C260 25.9 259.775 25 259.5 25C259.225 25 259 24.1 259 23C259 21.9 258.775 21 258.5 21C258.225 21 258 20.325 258 19.5C258 18.675 257.775 18 257.5 18C257.225 18 257 17.1 257 16C257 14.9 256.775 14 256.5 14C256.225 14 256 13.1 256 12C256 10.9 255.775 10 255.5 10C255.225 10 255 9.1 255 8C255 6.9 254.775 6 254.5 6C254.225 6 254 5.325 254 4.5C254 3.675 253.872 3 253.715 3C253.128 3 252 4.45651 252 5.21451C252 5.64651 251.775 6 251.5 6C251.225 6 251 6.45 251 7C251 7.55 250.775 8 250.5 8C250.225 8 250 8.45 250 9C250 9.55 249.775 10 249.5 10C249.225 10 249 10.675 249 11.5C249 12.325 248.775 13 248.5 13C248.225 13 248 13.45 248 14C248 14.55 247.775 15 247.5 15C247.225 15 247 15.45 247 16C247 16.55 246.775 17 246.5 17C246.225 17 246 17.675 246 18.5C246 19.325 245.775 20 245.5 20C245.225 20 245 20.45 245 21C245 21.55 244.775 22 244.5 22C244.225 22 244 22.45 244 23C244 23.55 243.775 24 243.5 24C243.225 24 243 24.45 243 25C243 25.55 242.775 26 242.5 26C242.225 26 242 26.675 242 27.5C242 28.325 241.775 29 241.5 29C241.225 29 241 29.45 241 30C241 30.55 240.775 31 240.5 31C240.225 31 240 31.45 240 32C240 32.55 239.775 33 239.5 33C239.225 33 239 33.45 239 34C239 34.55 238.775 35 238.5 35C238.225 35 238 35.675 238 36.5C238 37.325 237.775 38 237.5 38C237.225 38 237 38.45 237 39C237 39.55 236.775 40 236.5 40C236.225 40 236 40.45 236 41C236 41.565 235.667 42 235.234 42C234.349 42 231 38.8105 231 37.9675C231 37.656 230.325 36.7705 229.5 36C228.675 35.2295 228 34.334 228 34.01C228 33.6865 227.1 32.557 226 31.5C224.9 30.443 224 29.318 224 29C224 28.682 223.1 27.557 222 26.5C220.9 25.443 220 24.318 220 24C220 23.682 219.1 22.557 218 21.5C216.9 20.443 216 19.321 216 19.0065C216 18.6925 214.875 17.3395 213.5 16C212.125 14.6605 211 13.3145 211 13.0085C211 12.702 209.425 10.8985 207.5 9C205.575 7.1015 204 5.30649 204 5.01099C204 4.47749 199.768 0 199.263 0C199.119 0 199 0.9 199 2ZM182.625 136.748C182.282 137.138 182 137.715 182 138.029C182 138.342 181.325 139.229 180.5 140C179.675 140.771 179 141.711 179 142.09C179 142.469 178.55 143.104 178 143.5C177.45 143.896 177 144.572 177 145C177 145.428 176.55 146.104 176 146.5C175.45 146.896 175 147.572 175 148C175 148.428 174.55 149.104 174 149.5C173.04 150.192 173 150.795 173 164.611C173 178.072 173.057 179 173.889 179C174.379 179 175.104 179.45 175.5 180C175.924 180.587 176.795 181 177.611 181C178.375 181 179 181.225 179 181.5C179 181.808 181.5 182 185.5 182C189.5 182 192 182.192 192 182.5C192 182.812 195 183 200 183C205 183 208 183.188 208 183.5C208 183.817 211.667 184 218 184C224.333 184 228 183.817 228 183.5C228 183.175 235 183 248 183C261 183 268 182.825 268 182.5C268 182.204 269.833 182 272.5 182C275.167 182 277 181.796 277 181.5C277 181.225 277.9 181 279 181C280.1 181 281 180.775 281 180.5C281 180.225 281.45 180 282 180C282.55 180 283 179.775 283 179.5C283 179.225 283.45 179 284 179C284.55 179 285 178.775 285 178.5C285 178.225 285.353 178 285.785 178C287.088 178 288 176.676 288 174.785C288 173.803 288.225 173 288.5 173C288.815 173 289 169.667 289 164C289 158.333 288.815 155 288.5 155C288.225 155 288 154.55 288 154C288 153.45 287.775 153 287.5 153C287.225 153 287 152.6 287 152.111C287 151.621 286.55 150.896 286 150.5C285.45 150.104 285 149.428 285 149C285 148.572 284.55 147.896 284 147.5C283.45 147.104 283 146.379 283 145.889C283 145.4 282.775 145 282.5 145C282.225 145 282 144.6 282 144.111C282 143.621 281.55 142.896 281 142.5C280.45 142.104 280 141.481 280 141.117C280 140.753 279.447 139.903 278.772 139.228C277.558 138.013 277.451 138 268.272 138C262.424 138 259 137.815 259 137.5C259 137.175 252.167 137 239.5 137C226.833 137 220 136.825 220 136.5C220 136.176 213.554 136.007 201.625 136.019C186.398 136.035 183.143 136.159 182.625 136.748ZM235.286 152.715C235.679 153.107 236 153.782 236 154.215C236 154.647 236.225 155 236.5 155C236.775 155 237 155.9 237 157C237 158.666 237.166 159 238 159C238.55 159 239 159.225 239 159.5C239 159.775 239.675 160 240.5 160C241.987 160 242 159.976 242 157.215C242 155.467 242.266 154.163 242.714 153.715C243.522 152.907 247 152.733 247 153.5C247 153.775 246.775 154 246.5 154C245.706 154 245.892 159.463 246.714 160.285C247.284 160.856 249.4 161 257.215 161C263.405 161 267 161.183 267 161.5C267 161.775 266.325 162 265.5 162C264.675 162 264 162.225 264 162.5C264 162.812 261 163 256 163C251 163 248 163.188 248 163.5C248 163.775 247.55 164 247 164C246.222 164 246 164.334 246 165.5C246 166.325 245.775 167 245.5 167C245.225 167 245 167.9 245 169C245 170.889 244.916 171 243.5 171H242V167.5V164H239H236V167.5C236 170.349 235.853 171 235.214 171C233.708 171 233 169.652 233 166.785V164H230.5H228V166.5C228 167.875 227.775 169 227.5 169C227.225 169 227 169.45 227 170C227 171.184 226.683 171.254 225.714 170.285C225.266 169.837 225 168.533 225 166.785V164H222.714C220.378 164 219 164.806 219 166.172C219 166.582 219.282 167.048 219.625 167.208C220.125 167.441 220.125 167.559 219.625 167.792C218.883 168.138 218.779 170 219.5 170C219.775 170 220 170.225 220 170.5C220 170.775 219.1 171 218 171H216V167.5C216 164.333 215.905 164 215 164C214.45 164 214 163.775 214 163.5C214 163.188 211 163 206 163C201 163 198 162.812 198 162.5C198 162.222 196.666 162 195 162C193.334 162 192 161.778 192 161.5C192 161.192 194.5 161 198.5 161C202.5 161 205 160.808 205 160.5C205 160.201 206.929 160 209.786 160C214.715 160 216 159.542 216 157.785C216 157.353 216.225 157 216.5 157C216.775 157 217 156.1 217 155C217 153.334 217.166 153 218 153C218.881 153 219 153.333 219 155.785C219 159.231 219.678 160 222.714 160H225V156.5V153H226.5H228V156C228 158.667 228.111 159 229 159C229.55 159 230 159.225 230 159.5C230 159.775 230.675 160 231.5 160H233V156.729C233 154.824 233.261 153.161 233.625 152.748C234.411 151.854 234.426 151.854 235.286 152.715ZM319 173.5C319 174.325 318.775 175 318.5 175C318.225 175 318 175.675 318 176.5C318 177.325 317.775 178 317.5 178C317.225 178 317 178.9 317 180C317 181.889 316.916 182 315.5 182C314.675 182 314 182.225 314 182.5C314 182.775 313.55 183 313 183C312.45 183 312 183.225 312 183.5C312 183.775 311.1 184 310 184C308.9 184 308 184.225 308 184.5C308 184.775 307.55 185 307 185C306.061 185 306 185.333 306 190.5C306 193.833 305.803 196 305.5 196C305.185 196 305 199.333 305 205C305 210.667 304.815 214 304.5 214C304.194 214 304 216.333 304 220C304 223.667 303.806 226 303.5 226C303.208 226 303 227.667 303 230C303 232.333 302.792 234 302.5 234C302.222 234 302 235.334 302 237C302 238.666 302.222 240 302.5 240C302.775 240 303 239.55 303 239C303 238.45 303.225 238 303.5 238C303.775 238 304 237.55 304 237C304 236.45 304.225 236 304.5 236C304.775 236 305 235.325 305 234.5C305 233.675 305.225 233 305.5 233C305.775 233 306 232.196 306 231.214C306 229.646 306.878 228 307.715 228C307.872 228 308 229.029 308 230.286C308 232.293 308.788 234 309.715 234C309.872 234 310 232.071 310 229.714C310 225.304 310.506 224 312.215 224C312.647 224 313 223.641 313 223.201C313 222.761 313.675 221.771 314.5 221C315.325 220.229 316 219.239 316 218.799C316 218.359 316.225 218 316.5 218C316.775 218 317 217.599 317 217.11C317 216.621 317.45 215.896 318 215.5C318.55 215.104 319 214.379 319 213.889C319 213.4 319.225 213 319.5 213C319.775 213 320 212.325 320 211.5C320 210.675 320.225 210 320.5 210C320.775 210 321 209.55 321 209C321 208.45 320.775 208 320.5 208C320.225 208 320 207.647 320 207.215C320 206.457 318.872 205 318.285 205C318.128 205 318 205.45 318 206C318 206.55 318.225 207 318.5 207C318.775 207 319 207.9 319 209C319 210.1 318.775 211 318.5 211C318.225 211 318 211.675 318 212.5C318 213.325 317.775 214 317.5 214C317.225 214 317 214.4 317 214.889C317 215.379 316.55 216.104 316 216.5C315.45 216.896 315 217.621 315 218.11C315 218.599 314.775 219 314.5 219C314.225 219 314 219.45 314 220C314 220.55 313.775 221 313.5 221C313.225 221 313 220.325 313 219.5C313 218.675 313.225 218 313.5 218C313.775 218 314 217.1 314 216C314 214.9 314.225 214 314.5 214C314.775 214 315 213.1 315 212C315 210.9 315.225 210 315.5 210C315.775 210 316 209.1 316 208C316 206.9 316.225 206 316.5 206C316.775 206 317 204.875 317 203.5C317 202.125 317.225 201 317.5 201C317.775 201 318 200.1 318 199C318 197.9 318.225 197 318.5 197C318.775 197 319 196.1 319 195C319 193.9 319.225 193 319.5 193C319.775 193 320 192.1 320 191C320 189.9 320.128 189 320.285 189C321.017 189 322 190.556 322 191.715C322 192.422 322.225 193 322.5 193C322.775 193 323 192.325 323 191.5C323 190.675 323.128 190 323.285 190C324.007 190 325 191.548 325 192.672C325 193.357 325.279 194.01 325.621 194.124C326.447 194.399 324.881 196 323.785 196C323.246 196 323 196.469 323 197.5C323 198.531 323.246 199 323.785 199C325.088 199 326 200.324 326 202.215C326 203.799 325.855 204 324.715 204C323.376 204 322 205.013 322 206C322 206.827 323.299 208 324.215 208C324.754 208 325 208.469 325 209.5C325 210.325 324.775 211 324.5 211C324.225 211 324 211.675 324 212.5C324 213.916 323.889 214 322 214C320.111 214 320 214.084 320 215.5C320 216.666 320.222 217 321 217C321.666 217 322 217.334 322 218C322 218.55 321.775 219 321.5 219C321.225 219 321 219.354 321 219.786C321 221.089 319.676 222 317.785 222C316.333 222 316 222.187 316 223C316 223.55 316.225 224 316.5 224C317.424 224 317.031 226.757 316 227.5C315.45 227.896 315 228.621 315 229.11C315 229.732 314.614 230 313.715 230C312.376 230 311 231.013 311 232C311 232.827 312.299 234 313.215 234C313.667 234 314 234.424 314 235C314 235.55 313.775 236 313.5 236C313.225 236 313 236.352 313 236.782C313 237.213 311.875 238.661 310.5 240C308.423 242.023 308 242.737 308 244.218C308 245.198 307.775 246 307.5 246C307.225 246 307 246.45 307 247C307 247.778 306.666 248 305.5 248C304.675 248 304 247.775 304 247.5C304 247.225 303.55 247 303 247C302.45 247 302 246.775 302 246.5C302 246.225 301.55 246 301 246C300.334 246 300 246.334 300 247C300 247.55 299.775 248 299.5 248C299.225 248 299 248.45 299 249C299 249.55 298.775 250 298.5 250C298.225 250 298 250.675 298 251.5C298 252.325 297.775 253 297.5 253C297.225 253 297 253.45 297 254C297 254.55 296.775 255 296.5 255C296.225 255 296 255.45 296 256C296 256.55 295.775 257 295.5 257C295.225 257 295 257.45 295 258C295 258.55 294.775 259 294.5 259C294.225 259 294 259.45 294 260C294 260.55 293.775 261 293.5 261C293.225 261 293 261.45 293 262C293 262.55 292.775 263 292.5 263C292.225 263 292 263.45 292 264C292 264.55 291.775 265 291.5 265C291.225 265 291 265.45 291 266C291 266.55 290.775 267 290.5 267C290.225 267 290 267.45 290 268C290 268.55 289.775 269 289.5 269C289.208 269 289 270.667 289 273C289 275.333 288.792 277 288.5 277C288.2 277 288 279 288 282C288 285 287.8 287 287.5 287C287.208 287 287 288.667 287 291C287 293.333 286.792 295 286.5 295C286.225 295 286 295.675 286 296.5C286 297.666 285.778 298 285 298C284.45 298 284 298.225 284 298.5C284 298.775 283.775 299 283.5 299C283.215 299 283 297.5 283 295.5C283 293.5 283.215 292 283.5 292C283.803 292 284 289.833 284 286.5C284 283.167 284.197 281 284.5 281C284.775 281 285 280.1 285 279C285 277.9 284.872 277 284.715 277C284.203 277 283 278.413 283 279.013C283 279.335 282.325 280.229 281.5 281C280.675 281.771 280 282.65 280 282.954C280 283.258 275.839 287.667 270.754 292.753C263.676 299.83 261.213 302 260.254 302C258.741 302 258.652 301.471 260 300.5C260.55 300.104 261 299.485 261 299.125C261 298.765 263.7 295.784 267 292.5C270.3 289.216 273 286.287 273 285.99C273 285.694 274.575 283.898 276.5 282C278.425 280.102 280 278.29 280 277.974C280 277.659 280.675 276.771 281.5 276C282.325 275.229 283 274.288 283 273.91C283 273.531 283.45 272.896 284 272.5C284.55 272.104 285 271.379 285 270.89C285 270.401 285.225 270 285.5 270C285.775 270 286 269.599 286 269.11C286 268.621 286.45 267.896 287 267.5C287.55 267.104 288 266.379 288 265.89C288 265.401 288.225 265 288.5 265C288.775 265 289 264.55 289 264C289 263.45 289.225 263 289.5 263C289.775 263 290 262.55 290 262C290 261.45 290.225 261 290.5 261C290.775 261 291 260.55 291 260C291 259.45 291.225 259 291.5 259C291.775 259 292 258.55 292 258C292 257.45 292.225 257 292.5 257C292.775 257 293 256.55 293 256C293 255.45 293.225 255 293.5 255C293.775 255 294 254.55 294 254C294 253.45 294.225 253 294.5 253C294.775 253 295 252.325 295 251.5C295 250.675 295.225 250 295.5 250C295.775 250 296 249.55 296 249C296 248.45 296.225 248 296.5 248C296.775 248 297 247.325 297 246.5C297 245.675 297.225 245 297.5 245C297.775 245 298 244.1 298 243C298 241.9 298.225 241 298.5 241C298.775 241 299 240.1 299 239C299 237.9 299.225 237 299.5 237C299.796 237 300 235.167 300 232.5C300 229.833 300.204 228 300.5 228C300.803 228 301 225.833 301 222.5C301 219.167 301.197 217 301.5 217C301.811 217 302 214.167 302 209.5C302 204.833 302.189 202 302.5 202C302.808 202 303 199.5 303 195.5V189H298.5C295.833 189 294 189.204 294 189.5C294 189.8 292 190 289 190C286 190 284 190.2 284 190.5C284 190.792 282.333 191 280 191C277.667 191 276 191.208 276 191.5C276 191.785 274.5 192 272.5 192C270.5 192 269 192.215 269 192.5C269 192.775 268.325 193 267.5 193C266.675 193 266 193.225 266 193.5C266 193.775 265.325 194 264.5 194C263.675 194 263 194.225 263 194.5C263 194.775 262.325 195 261.5 195C260.675 195 260 195.225 260 195.5C260 195.775 258.875 196 257.5 196C256.125 196 255 196.225 255 196.5C255 196.775 254.1 197 253 197C251.9 197 251 197.225 251 197.5C251 197.775 250.1 198 249 198C247.9 198 247 198.225 247 198.5C247 198.775 245.875 199 244.5 199C243.125 199 242 199.225 242 199.5C242 199.775 241.1 200 240 200C238.9 200 238 199.775 238 199.5C238 199.225 238.45 199 239 199C239.55 199 240 198.775 240 198.5C240 198.225 240.45 198 241 198C241.55 198 242 197.775 242 197.5C242 197.225 242.675 197 243.5 197C244.325 197 245 196.775 245 196.5C245 196.225 245.45 196 246 196C246.55 196 247 195.775 247 195.5C247 195.225 247.45 195 248 195C248.55 195 249 194.775 249 194.5C249 194.176 242.5 194 230.5 194C218.5 194 212 193.824 212 193.5C212 193.225 211.55 193 211 193C210.334 193 210 193.334 210 194C210 194.834 210.334 195 212 195C213.1 195 214 195.225 214 195.5C214 195.775 214.45 196 215 196C215.55 196 216 196.225 216 196.5C216 196.775 216.9 197 218 197C219.1 197 220 197.225 220 197.5C220 197.775 220.675 198 221.5 198C222.325 198 223 198.225 223 198.5C223 198.796 221.167 199 218.5 199C215.833 199 214 198.796 214 198.5C214 198.225 212.875 198 211.5 198C210.125 198 209 197.775 209 197.5C209 197.225 208.1 197 207 197C205.9 197 205 196.775 205 196.5C205 196.225 204.1 196 203 196C201.9 196 201 195.775 201 195.5C201 195.225 200.325 195 199.5 195C198.675 195 198 194.775 198 194.5C198 194.225 197.325 194 196.5 194C195.675 194 195 193.775 195 193.5C195 193.225 194.325 193 193.5 193C192.675 193 192 192.775 192 192.5C192 192.188 189 192 184 192C179 192 176 191.812 176 191.5C176 191.204 174.167 191 171.5 191C168.833 191 167 190.796 167 190.5C167 190.225 165.875 190 164.5 190C163.125 190 162 189.775 162 189.5C162 189.225 161.1 189 160 189H158V192.5C158 194.5 158.215 196 158.5 196C158.796 196 159 197.833 159 200.5C159 203.167 159.204 205 159.5 205C159.785 205 160 206.5 160 208.5C160 210.5 160.215 212 160.5 212C160.785 212 161 213.5 161 215.5C161 217.5 161.215 219 161.5 219C161.785 219 162 220.5 162 222.5C162 224.5 162.215 226 162.5 226C162.792 226 163 227.667 163 230C163 232.333 163.208 234 163.5 234C163.778 234 164 235.334 164 237C164 238.666 164.222 240 164.5 240C164.775 240 165 240.675 165 241.5C165 242.325 165.225 243 165.5 243C165.775 243 166 243.675 166 244.5C166 245.325 166.225 246 166.5 246C166.775 246 167 246.9 167 248C167 249.1 167.225 250 167.5 250C167.775 250 168 250.675 168 251.5C168 252.325 168.225 253 168.5 253C168.775 253 169 253.675 169 254.5C169 255.325 169.225 256 169.5 256C169.775 256 170 256.45 170 257C170 257.55 170.225 258 170.5 258C170.775 258 171 258.45 171 259C171 259.55 171.225 260 171.5 260C171.775 260 172 260.45 172 261C172 261.55 172.225 262 172.5 262C172.775 262 173 262.45 173 263C173 263.55 173.225 264 173.5 264C173.775 264 174 264.401 174 264.89C174 265.379 174.45 266.104 175 266.5C175.55 266.896 176 267.621 176 268.11C176 268.599 176.225 269 176.5 269C176.775 269 177 269.45 177 270C177 270.55 177.225 271 177.5 271C177.775 271 178 271.401 178 271.89C178 272.379 178.45 273.104 179 273.5C179.55 273.896 180 274.621 180 275.11C180 275.599 180.225 276 180.5 276C180.775 276 181 276.359 181 276.799C181 277.239 181.675 278.229 182.5 279C183.325 279.771 184 280.659 184 280.974C184 281.29 185.575 283.102 187.5 285C189.425 286.898 191 288.696 191 288.994C191 289.291 193.25 291.769 196 294.5C198.75 297.231 201 299.761 201 300.122C201 300.484 201.45 301.104 202 301.5C203.499 302.581 203.22 303 201 303C199.9 303 199 302.775 199 302.5C199 302.225 198.66 302 198.245 302C197.384 302 186 290.803 186 289.956C186 289.651 185.325 288.771 184.5 288C183.675 287.229 183 286.341 183 286.026C183 285.455 180.788 283 180.273 283C180.123 283 180 283.9 180 285C180 286.1 180.225 287 180.5 287C180.803 287 181 289.167 181 292.5C181 295.833 180.803 298 180.5 298C180.225 298 180 297.775 180 297.5C180 297.225 179.55 297 179 297C178.095 297 178 296.667 178 293.5C178 291.5 177.785 290 177.5 290C177.204 290 177 288.167 177 285.5C177 282.833 176.796 281 176.5 281C176.216 281 176 279.537 176 277.61C176 274.794 175.831 274.099 175 273.5C174.45 273.104 174 272.379 174 271.89C174 271.401 173.775 271 173.5 271C173.225 271 173 270.55 173 270C173 269.45 172.775 269 172.5 269C172.225 269 172 268.55 172 268C172 267.45 171.775 267 171.5 267C171.225 267 171 266.55 171 266C171 265.45 170.775 265 170.5 265C170.225 265 170 264.599 170 264.11C170 263.621 169.55 262.896 169 262.5C168.45 262.104 168 261.379 168 260.89C168 260.401 167.775 260 167.5 260C167.225 260 167 259.325 167 258.5C167 257.675 166.775 257 166.5 257C166.225 257 166 256.55 166 256C166 255.45 165.775 255 165.5 255C165.225 255 165 254.325 165 253.5C165 252.675 164.775 252 164.5 252C164.225 252 164 251.1 164 250C164 248.111 163.916 248 162.5 248C161.675 248 161 248.225 161 248.5C161 248.775 160.325 249 159.5 249C158.675 249 158 248.775 158 248.5C158 248.225 157.55 248 157 248C156.044 248 156 247.667 156 240.5C156 236.375 156.129 233 156.286 233C157.018 233 158 234.556 158 235.714C158 236.421 158.225 237 158.5 237C158.775 237 159 237.579 159 238.286C159 239.444 159.982 241 160.714 241C160.871 241 161 240.1 161 239C161 237.9 160.775 237 160.5 237C160.204 237 160 235.167 160 232.5C160 229.833 159.796 228 159.5 228C159.204 228 159 226.167 159 223.5C159 220.833 158.796 219 158.5 219C158.204 219 158 217.167 158 214.5C158 211.833 157.796 210 157.5 210C157.204 210 157 208.167 157 205.5C157 202.833 156.796 201 156.5 201C156.204 201 156 199.167 156 196.5C156 193.833 155.796 192 155.5 192C155.215 192 155 190.5 155 188.5V185H153C151.9 185 151 184.775 151 184.5C151 184.225 150.1 184 149 184C147.334 184 147 184.166 147 185C147 185.55 147.225 186 147.5 186C147.778 186 148 187.334 148 189C148 190.666 148.222 192 148.5 192C148.778 192 149 193.334 149 195C149 196.666 149.222 198 149.5 198C149.775 198 150 199.125 150 200.5C150 201.875 150.225 203 150.5 203C150.775 203 151 204.125 151 205.5C151 206.875 151.225 208 151.5 208C151.778 208 152 209.334 152 211C152 212.666 152.222 214 152.5 214C152.785 214 153 215.5 153 217.5V221H151.5H150V217C150 214.667 150.208 213 150.5 213C150.775 213 151 212.55 151 212C151 211.45 150.775 211 150.5 211C150.225 211 150 210.1 150 209C150 207.9 149.775 207 149.5 207C149.225 207 149 206.1 149 205C149 203.9 148.775 203 148.5 203C148.225 203 148 202.325 148 201.5C148 200.675 147.775 200 147.5 200C147.225 200 147 199.325 147 198.5C147 197.675 146.775 197 146.5 197C146.225 197 146 196.325 146 195.5C146 194.675 145.775 194 145.5 194C145.225 194 145 193.325 145 192.5C145 191.675 144.775 191 144.5 191C144.225 191 144 190.653 144 190.228C144 189.338 141.817 187 140.987 187C140.171 187 139 188.305 139 189.215C139 190.189 138.637 190.209 137.714 189.285C136.902 188.474 136.741 186 137.5 186C137.775 186 138 185.55 138 185C138 184.45 138.225 184 138.5 184C138.775 184 139 183.55 139 183C139 182.222 139.334 182 140.5 182H142V178.542C142 176.233 142.206 175.014 142.62 174.876C143.056 174.731 142.957 174.385 142.286 173.715C141.615 173.044 141.269 172.944 141.124 173.379C141.01 173.721 140.582 174 140.173 174C139.764 174 139.107 174.322 138.714 174.715C137.895 175.534 137.757 177 138.5 177C138.775 177 139 177.85 139 178.889C139 180.205 138.697 180.998 138 181.5C137.45 181.896 137 182.621 137 183.111C137 183.6 136.775 184 136.5 184C136.225 184 136 184.85 136 185.889C136 187.205 135.697 187.998 135 188.5C133.878 189.309 133.676 190.765 134.625 191.208C135.125 191.441 135.125 191.559 134.625 191.792C134.229 191.977 134 193.164 134 195.042C134 196.681 133.777 198 133.5 198C133.222 198 133 199.334 133 201C133 202.666 133.222 204 133.5 204C134.226 204 134.114 206.863 133.375 207.208C132.875 207.441 132.875 207.559 133.375 207.792C133.719 207.952 134 208.515 134 209.042C134 209.569 134.225 210 134.5 210C134.775 210 135 210.675 135 211.5C135 212.325 135.225 213 135.5 213C135.775 213 136 214.076 136 215.39C136 217.206 136.24 217.952 137 218.5C137.587 218.924 138 219.794 138 220.61C138 221.374 138.225 222 138.5 222C138.775 222 139 222.45 139 223C139 223.55 139.225 224 139.5 224C139.775 224 140 224.45 140 225C140 225.55 140.225 226 140.5 226C140.775 226 141 226.45 141 227C141 227.55 141.225 228 141.5 228C141.775 228 142 228.45 142 229C142 229.55 142.225 230 142.5 230C142.775 230 143 230.45 143 231C143 231.55 143.225 232 143.5 232C143.775 232 144 232.45 144 233C144 233.55 144.225 234 144.5 234C144.817 234 145 237.833 145 244.5C145 251.167 144.817 255 144.5 255C144.184 255 144 258.5 144 264.5C144 270.5 144.184 274 144.5 274C144.775 274 145 273.55 145 273C145 272.45 145.225 272 145.5 272C145.775 272 146 271.325 146 270.5C146 269.675 146.225 269 146.5 269C146.775 269 147 268.325 147 267.5C147 266.675 147.225 266 147.5 266C147.775 266 148 265.325 148 264.5C148 263.675 148.225 263 148.5 263C148.775 263 149 262.1 149 261C149 259.334 149.166 259 150 259C150.945 259 151 259.333 151 265C151 268.667 151.194 271 151.5 271C151.806 271 152 273.333 152 277C152 280.667 152.194 283 152.5 283C152.785 283 153 284.5 153 286.5C153 289.667 152.905 290 152 290C151.45 290 151 289.775 151 289.5C151 289.225 150.325 289 149.5 289C148.675 289 148 288.775 148 288.5C148 288.225 147.1 288 146 288C144.9 288 144 287.775 144 287.5C144 287.225 143.1 287 142 287C140.9 287 140 286.775 140 286.5C140 286.225 139.325 286 138.5 286C137.675 286 137 285.775 137 285.5C137 285.225 136.1 285 135 285C133.9 285 133 284.775 133 284.5C133 284.225 132.1 284 131 284C129.9 284 129 283.775 129 283.5C129 283.225 128.325 283 127.5 283C126.675 283 126 282.775 126 282.5C126 282.225 125.1 282 124 282C122.9 282 122 281.775 122 281.5C122 281.225 121.325 281 120.5 281C119.675 281 119 280.775 119 280.5C119 280.225 118.325 280 117.5 280C116.675 280 116 279.775 116 279.5C116 279.225 115.325 279 114.5 279C113.675 279 113 278.775 113 278.5C113 278.225 112.325 278 111.5 278C110.675 278 110 277.775 110 277.5C110 277.225 109.55 277 109 277C108.45 277 108 276.775 108 276.5C108 276.225 107.55 276 107 276C106.45 276 106 275.775 106 275.5C106 275.225 105.55 275 105 275C104.45 275 104 274.775 104 274.5C104 274.225 103.55 274 103 274C102.45 274 102 273.775 102 273.5C102 273.225 101.55 273 101 273C100.45 273 100 272.775 100 272.5C100 272.225 99.55 272 99 272C98.45 272 98 271.775 98 271.5C98 271.225 97.55 271 97 271C96.45 271 96 270.775 96 270.5C96 270.225 95.55 270 95 270C94.45 270 94 269.775 94 269.5C94 269.225 93.5995 269 93.1105 269C92.621 269 91.8965 268.55 91.5 268C91.1035 267.45 90.4755 267 90.104 267C88.707 267 88 265.584 88 262.786C88 260.567 88.1625 260 88.7995 260C89.239 260 90.2295 259.325 91 258.5C91.7705 257.675 92.7115 257 93.09 257C93.469 257 94.1035 256.55 94.5 256C94.8965 255.45 95.531 255 95.91 255C96.2885 255 97.2295 254.325 98 253.5C98.7705 252.675 99.7115 252 100.09 252C100.469 252 101.104 251.55 101.5 251C101.896 250.45 102.621 250 103.11 250C103.599 250 104 249.775 104 249.5C104 249.225 104.45 249 105 249C105.55 249 106 248.775 106 248.5C106 248.225 106.45 248 107 248C107.55 248 108 247.775 108 247.5C108 247.225 108.45 247 109 247C109.55 247 110 246.775 110 246.5C110 246.225 110.45 246 111 246C111.55 246 112 245.775 112 245.5C112 245.225 112.45 245 113 245C113.55 245 114 244.775 114 244.5C114 244.225 114.45 244 115 244C115.55 244 116 243.775 116 243.5C116 243.225 116.675 243 117.5 243C118.325 243 119 242.775 119 242.5C119 242.225 119.675 242 120.5 242C121.325 242 122 241.775 122 241.5C122 241.225 122.675 241 123.5 241C124.325 241 125 240.775 125 240.5C125 240.225 125.675 240 126.5 240C127.325 240 128 239.775 128 239.5C128 239.225 127.1 239 126 239C124.9 239 124 239.225 124 239.5C124 239.775 123.1 240 122 240C120.9 240 120 240.225 120 240.5C120 240.775 119.55 241 119 241C118.45 241 118 241.225 118 241.5C118 241.775 117.325 242 116.5 242C115.675 242 115 242.225 115 242.5C115 242.775 114.325 243 113.5 243C112.675 243 112 243.225 112 243.5C112 243.775 111.55 244 111 244C110.45 244 110 244.225 110 244.5C110 244.775 109.55 245 109 245C108.45 245 108 245.225 108 245.5C108 245.775 107.374 246 106.61 246C105.794 246 104.924 246.413 104.5 247C104.104 247.55 103.379 248 102.89 248C102.401 248 102 248.225 102 248.5C102 248.775 101.55 249 101 249C100.45 249 100 249.225 100 249.5C100 249.775 99.55 250 99 250C98.45 250 98 250.225 98 250.5C98 250.775 97.5995 251 97.1105 251C96.621 251 95.8965 251.45 95.5 252C95.1035 252.55 94.4285 253 94 253C93.5715 253 92.8965 253.45 92.5 254C92.1035 254.55 91.4285 255 91 255C90.5715 255 89.8965 255.45 89.5 256C89.1035 256.55 88.4285 257 88 257C87.5715 257 86.8965 257.45 86.5 258C86.1035 258.55 85.4855 259 85.1265 259C84.7675 259 83.467 260.006 82.237 261.237L80 263.474V269.737C80 273.579 80.1935 276 80.5 276C80.7915 276 81 277.667 81 280C81 282.333 81.2085 284 81.5 284C81.778 284 82 285.334 82 287C82 288.666 82.222 290 82.5 290C82.775 290 83 291.125 83 292.5C83 293.875 83.225 295 83.5 295C83.778 295 84 296.334 84 298C84 299.666 84.222 301 84.5 301C84.7855 301 85 302.5 85 304.5C85 306.5 85.2145 308 85.5 308C85.778 308 86 309.334 86 311C86 312.666 86.222 314 86.5 314C86.775 314 87 315.125 87 316.5C87 317.875 87.225 319 87.5 319C87.778 319 88 320.334 88 322C88 323.666 88.222 325 88.5 325C88.775 325 89 325.675 89 326.5C89 327.325 89.225 328 89.5 328C89.775 328 90 328.675 90 329.5C90 330.325 90.225 331 90.5 331C90.775 331 91 331.45 91 332C91 332.55 91.225 333 91.5 333C91.775 333 92 333.675 92 334.5C92 335.325 92.225 336 92.5 336C92.775 336 93 336.675 93 337.5C93 338.325 93.225 339 93.5 339C93.775 339 94 339.675 94 340.5C94 341.325 94.225 342 94.5 342C94.775 342 95 342.225 95 342.5C95 342.775 94.1 343 93 343C91.9 343 91 343.225 91 343.5C91 343.775 90.195 344 89.211 344C87.777 344 87.04 344.398 85.5 346C84.443 347.1 83.3235 348 83.0115 348C82.6995 348 81.1195 349.35 79.5 351C77.8805 352.65 76.255 354 75.888 354C75.521 354 74.8965 354.45 74.5 355C74.1035 355.55 73.379 356 72.8895 356C72.4005 356 72 356.225 72 356.5C72 356.775 71.1 357 70 357C68.9 357 68 357.225 68 357.5C68 357.775 67.325 358 66.5 358C65.675 358 65 358.225 65 358.5C65 358.775 64.325 359 63.5 359C62.675 359 62 359.225 62 359.5C62 359.775 61.55 360 61 360C60.45 360 60 360.225 60 360.5C60 360.775 59.325 361 58.5 361C57.675 361 57 361.225 57 361.5C57 361.775 56.55 362 56 362C55.45 362 55 362.225 55 362.5C55 362.775 54.55 363 54 363C53.45 363 53 363.225 53 363.5C53 363.775 52.55 364 52 364C51.45 364 51 364.225 51 364.5C51 364.775 50.55 365 50 365C49.45 365 49 365.225 49 365.5C49 365.775 48.55 366 48 366C47.45 366 47 366.225 47 366.5C47 366.775 46.5995 367 46.1105 367C45.621 367 44.8965 367.45 44.5 368C44.1035 368.55 43.379 369 42.8895 369C42.4005 369 42 369.225 42 369.5C42 369.775 41.6405 370 41.2005 370C40.761 370 39.7705 370.675 39 371.5C38.2295 372.325 37.3495 373 37.045 373C36.328 373 23 386.318 23 387.034C23 387.333 22.1 388.443 21 389.5C19.9 390.557 19 391.682 19 392C19 392.318 18.1 393.443 17 394.5C15.9 395.557 15 396.727 15 397.101C15 397.474 14.55 398.104 14 398.5C13.45 398.896 13 399.572 13 400C13 400.428 12.55 401.104 12 401.5C11.45 401.896 11 402.572 11 403C11 403.428 10.55 404.104 10 404.5C9.45 404.896 9 405.572 9 406C9 406.428 8.55 407.104 8 407.5C7.45 407.896 7 408.572 7 409C7 409.428 6.55 410.104 6 410.5C5.45 410.896 5 411.621 5 412.11C5 412.599 4.775 413 4.5 413C4.225 413 4 413.401 4 413.89C4 414.379 3.55 415.104 3 415.5C2.45 415.896 2 416.621 2 417.11C2 417.599 1.775 418 1.5 418C1.225 418 1 418.45 1 419C1 419.55 0.775 420 0.5 420C0.225 420 0 420.45 0 421C0 421.74 0.3335 422 1.2855 422C2.679 422 4 420.976 4 419.896C4 419.524 4.45 418.896 5 418.5C5.55 418.104 6 417.379 6 416.89C6 416.401 6.225 416 6.5 416C6.775 416 7 415.55 7 415C7 414.45 7.225 414 7.5 414C7.775 414 8 413.599 8 413.11C8 412.621 8.45 411.896 9 411.5C9.55 411.104 10 410.428 10 410C10 409.572 10.45 408.896 11 408.5C11.55 408.104 12 407.428 12 407C12 406.572 12.45 405.896 13 405.5C13.55 405.104 14 404.469 14 404.09C14 403.712 14.675 402.771 15.5 402C16.325 401.229 17 400.329 17 400C17 399.671 17.675 398.771 18.5 398C19.325 397.229 20 396.329 20 396C20 395.671 20.675 394.771 21.5 394C22.325 393.229 23 392.342 23 392.028C23 391.714 24.8 389.677 27 387.5C29.2 385.323 31 383.195 31 382.771C31 382.347 31.3535 382 31.7855 382C32.796 382 34 380.796 34 379.786C34 379.354 34.352 379 34.7825 379C35.213 379 36.6605 377.875 38 376.5C39.3395 375.125 40.7375 374 41.107 374C41.477 374 42.1035 373.55 42.5 373C42.8965 372.45 43.621 372 44.1105 372C44.5995 372 45 371.775 45 371.5C45 371.225 45.4005 371 45.8895 371C46.379 371 47.1035 370.55 47.5 370C47.8965 369.45 48.621 369 49.1105 369C49.5995 369 50 368.775 50 368.5C50 368.225 50.45 368 51 368C51.55 368 52 367.775 52 367.5C52 367.225 52.45 367 53 367C53.55 367 54 366.775 54 366.5C54 366.225 54.45 366 55 366C55.55 366 56 365.775 56 365.5C56 365.225 56.45 365 57 365C57.55 365 58 364.775 58 364.5C58 364.225 58.675 364 59.5 364C60.325 364 61 363.775 61 363.5C61 363.225 61.675 363 62.5 363C63.325 363 64 362.775 64 362.5C64 362.225 64.675 362 65.5 362C66.325 362 67 361.775 67 361.5C67 361.225 67.675 361 68.5 361C69.325 361 70 360.775 70 360.5C70 360.225 70.8505 360 71.8895 360C73.2055 360 73.998 359.697 74.5 359C74.8965 358.45 75.526 358 75.8995 358C76.273 358 77.443 357.1 78.5 356C79.557 354.9 80.6765 354 80.9885 354C81.3005 354 82.8805 352.65 84.5 351C86.1195 349.35 87.7945 348 88.2225 348C88.65 348 89 347.775 89 347.5C89 347.2 91 347 94 347H99V345.5C99 344.675 98.775 344 98.5 344C98.225 344 98 343.325 98 342.5C98 341.675 97.775 341 97.5 341C97.225 341 97 340.325 97 339.5C97 338.675 96.775 338 96.5 338C96.225 338 96 337.325 96 336.5C96 335.675 95.775 335 95.5 335C95.225 335 95 334.325 95 333.5C95 332.675 94.775 332 94.5 332C94.225 332 94 331.55 94 331C94 330.45 93.775 330 93.5 330C93.225 330 93 329.325 93 328.5C93 327.675 92.775 327 92.5 327C92.225 327 92 326.1 92 325C92 323.9 91.775 323 91.5 323C91.222 323 91 321.666 91 320C91 318.334 90.778 317 90.5 317C90.225 317 90 315.875 90 314.5C90 313.125 89.775 312 89.5 312C89.222 312 89 310.666 89 309C89 307.334 88.778 306 88.5 306C88.222 306 88 304.666 88 303C88 301.334 87.778 300 87.5 300C87.222 300 87 298.666 87 297C87 295.334 86.778 294 86.5 294C86.225 294 86 292.875 86 291.5C86 290.125 85.775 289 85.5 289C85.2145 289 85 287.5 85 285.5C85 283.5 84.7855 282 84.5 282C84.2035 282 84 280.167 84 277.5C84 274.833 83.7965 273 83.5 273C83.2085 273 83 271.333 83 269C83 266.667 83.2085 265 83.5 265C83.775 265 84 265.348 84 265.773C84 266.718 86.2045 269 87.117 269C87.481 269 88.1035 269.45 88.5 270C88.8965 270.55 89.621 271 90.1105 271C90.5995 271 91 271.225 91 271.5C91 271.775 91.45 272 92 272C92.55 272 93 272.225 93 272.5C93 272.775 93.45 273 94 273C94.55 273 95 273.225 95 273.5C95 273.775 95.45 274 96 274C96.55 274 97 274.225 97 274.5C97 274.775 97.45 275 98 275C98.55 275 99 275.225 99 275.5C99 275.775 99.45 276 100 276C100.55 276 101 276.225 101 276.5C101 276.775 101.45 277 102 277C102.55 277 103 277.225 103 277.5C103 277.775 103.45 278 104 278C104.55 278 105 278.225 105 278.5C105 278.775 105.45 279 106 279C106.55 279 107 279.225 107 279.5C107 279.775 107.45 280 108 280C108.55 280 109 280.225 109 280.5C109 280.775 109.675 281 110.5 281C111.325 281 112 281.225 112 281.5C112 281.775 112.675 282 113.5 282C114.325 282 115 282.225 115 282.5C115 282.775 115.675 283 116.5 283C117.325 283 118 283.225 118 283.5C118 283.775 118.675 284 119.5 284C120.325 284 121 284.225 121 284.5C121 284.775 121.9 285 123 285C124.1 285 125 285.225 125 285.5C125 285.775 125.675 286 126.5 286C127.325 286 128 286.225 128 286.5C128 286.775 128.9 287 130 287C131.1 287 132 287.225 132 287.5C132 287.775 132.675 288 133.5 288C134.325 288 135 288.225 135 288.5C135 288.775 135.9 289 137 289C138.1 289 139 289.225 139 289.5C139 289.775 139.675 290 140.5 290C141.325 290 142 290.225 142 290.5C142 290.775 142.9 291 144 291C145.1 291 146 291.225 146 291.5C146 291.775 146.9 292 148 292C149.1 292 150 292.225 150 292.5C150 292.775 150.9 293 152 293C153.1 293 154 293.225 154 293.5C154 293.775 154.675 294 155.5 294C156.325 294 157 294.225 157 294.5C157 294.775 157.9 295 159 295C160.1 295 161 295.225 161 295.5C161 295.775 161.675 296 162.5 296C163.325 296 164 296.225 164 296.5C164 296.775 164.9 297 166 297C167.1 297 168 297.225 168 297.5C168 297.775 168.9 298 170 298C171.1 298 172 298.225 172 298.5C172 298.775 172.675 299 173.5 299C174.325 299 175 299.225 175 299.5C175 299.775 175.9 300 177 300C178.1 300 179 300.225 179 300.5C179 300.775 179.675 301 180.5 301C181.325 301 182 301.225 182 301.5C182 301.775 182.9 302 184 302C185.1 302 186 302.225 186 302.5C186 302.775 186.675 303 187.5 303C188.325 303 189 303.225 189 303.5C189 303.775 189.675 304 190.5 304C191.325 304 192 304.225 192 304.5C192 304.775 192.9 305 194 305C195.1 305 196 305.225 196 305.5C196 305.792 197.667 306 200 306C202.333 306 204 306.208 204 306.5C204 306.824 210.167 307 221.5 307C232.833 307 239 306.824 239 306.5C239 306.183 242.667 306 249 306C255.333 306 259 305.817 259 305.5C259 305.2 261 305 264 305C267 305 269 304.8 269 304.5C269 304.222 270.334 304 272 304C273.666 304 275 303.778 275 303.5C275 303.222 276.334 303 278 303C279.666 303 281 302.778 281 302.5C281 302.225 282.125 302 283.5 302C284.875 302 286 301.775 286 301.5C286 301.225 287.125 301 288.5 301C289.875 301 291 300.775 291 300.5C291 300.225 292.125 300 293.5 300C294.875 300 296 299.775 296 299.5C296 299.225 296.9 299 298 299C299.1 299 300 298.775 300 298.5C300 298.225 300.9 298 302 298C303.1 298 304 297.775 304 297.5C304 297.225 304.9 297 306 297C307.1 297 308 296.775 308 296.5C308 296.225 308.9 296 310 296C311.1 296 312 295.775 312 295.5C312 295.225 312.9 295 314 295C315.1 295 316 294.775 316 294.5C316 294.225 316.9 294 318 294C319.1 294 320 293.775 320 293.5C320 293.225 320.675 293 321.5 293C322.325 293 323 292.775 323 292.5C323 292.225 323.9 292 325 292C326.1 292 327 291.775 327 291.5C327 291.225 327.675 291 328.5 291C329.325 291 330 290.775 330 290.5C330 290.225 330.675 290 331.5 290C332.325 290 333 289.775 333 289.5C333 289.225 333.675 289 334.5 289C335.325 289 336 288.775 336 288.5C336 288.225 336.675 288 337.5 288C338.325 288 339 287.775 339 287.5C339 287.225 339.45 287 340 287C340.55 287 341 286.775 341 286.5C341 286.225 341.675 286 342.5 286C343.325 286 344 285.775 344 285.5C344 285.225 344.45 285 345 285C345.55 285 346 284.775 346 284.5C346 284.225 346.675 284 347.5 284C348.325 284 349 283.775 349 283.5C349 283.225 349.45 283 350 283C350.55 283 351 282.775 351 282.5C351 282.225 351.45 282 352 282C352.55 282 353 281.775 353 281.5C353 281.225 353.45 281 354 281C354.55 281 355 280.775 355 280.5C355 280.225 355.45 280 356 280C356.55 280 357 279.775 357 279.5C357 279.225 357.45 279 358 279C358.55 279 359 278.775 359 278.5C359 278.225 359.4 278 359.889 278C360.379 278 361.104 277.55 361.5 277C361.896 276.45 362.621 276 363.111 276C363.6 276 364 275.775 364 275.5C364 275.225 364.45 275 365 275C365.55 275 366 274.775 366 274.5C366 274.225 366.4 274 366.889 274C367.379 274 368.104 273.55 368.5 273C368.896 272.45 369.572 272 370 272C370.428 272 371.104 271.55 371.5 271C371.896 270.45 372.572 270 373 270C373.428 270 374.104 269.55 374.5 269C374.896 268.45 375.526 268 375.9 268C376.273 268 377.443 267.1 378.5 266C379.557 264.9 380.776 264 381.211 264C381.645 264 382 263.775 382 263.5C382 263.225 382.225 263 382.5 263C382.792 263 383 264.667 383 267C383 269.333 382.792 271 382.5 271C382.2 271 382 273 382 276C382 279 381.8 281 381.5 281C381.204 281 381 282.833 381 285.5C381 288.167 380.796 290 380.5 290C380.197 290 380 292.167 380 295.5C380 298.833 379.803 301 379.5 301C379.215 301 379 302.5 379 304.5C379 306.5 378.785 308 378.5 308C378.225 308 378 309.125 378 310.5C378 311.875 377.775 313 377.5 313C377.225 313 377 313.9 377 315C377 316.1 376.775 317 376.5 317C376.225 317 376 317.9 376 319C376 320.1 375.775 321 375.5 321C375.225 321 375 321.9 375 323C375 324.1 374.775 325 374.5 325C374.225 325 374 325.9 374 327C374 328.1 373.775 329 373.5 329C373.225 329 373 329.675 373 330.5C373 331.325 372.775 332 372.5 332C372.225 332 372 332.675 372 333.5C372 334.325 371.775 335 371.5 335C371.225 335 371 335.675 371 336.5C371 337.325 370.775 338 370.5 338C370.225 338 370 338.9 370 340C370 341.1 369.775 342 369.5 342C368.721 342 368.903 346.475 369.715 347.286C370.125 347.697 371.4 348 372.715 348C373.972 348 375 348.225 375 348.5C375 348.775 375.675 349 376.5 349C377.325 349 378 349.225 378 349.5C378 349.775 378.35 350 378.777 350C379.205 350 380.88 351.35 382.5 353C384.12 354.65 385.795 356 386.223 356C386.65 356 387 356.225 387 356.5C387 356.775 387.45 357 388 357C388.55 357 389 357.225 389 357.5C389 357.775 389.45 358 390 358C390.55 358 391 358.225 391 358.5C391 358.775 391.45 359 392 359C392.55 359 393 359.225 393 359.5C393 359.775 393.45 360 394 360C394.55 360 395 360.225 395 360.5C395 360.775 395.45 361 396 361C396.55 361 397 361.225 397 361.5C397 361.775 397.45 362 398 362C398.55 362 399 362.225 399 362.5C399 362.775 399.45 363 400 363C400.55 363 401 363.225 401 363.5C401 363.775 401.45 364 402 364C402.55 364 403 364.225 403 364.5C403 364.775 403.45 365 404 365C404.55 365 405 365.225 405 365.5C405 365.775 405.45 366 406 366C406.55 366 407 366.225 407 366.5C407 366.775 407.45 367 408 367C408.55 367 409 367.225 409 367.5C409 367.775 409.45 368 410 368C410.55 368 411 368.225 411 368.5C411 368.775 411.45 369 412 369C412.55 369 413 369.225 413 369.5C413 369.775 413.45 370 414 370C414.55 370 415 370.225 415 370.5C415 370.775 415.45 371 416 371C416.55 371 417 371.225 417 371.5C417 371.775 417.4 372 417.889 372C418.379 372 419.104 372.45 419.5 373C419.896 373.55 420.621 374 421.111 374C421.6 374 422 374.225 422 374.5C422 374.775 422.45 375 423 375C423.55 375 424 375.225 424 375.5C424 375.775 424.45 376 425 376C425.55 376 426 376.225 426 376.5C426 376.775 426.4 377 426.889 377C427.379 377 428.104 377.45 428.5 378C428.896 378.55 429.572 379 430 379C430.428 379 431.104 379.45 431.5 380C431.896 380.55 432.531 381 432.91 381C433.289 381 434.229 381.675 435 382.5C435.771 383.325 436.652 384 436.96 384C437.688 384 444 390.312 444 391.04C444 391.347 444.675 392.229 445.5 393C446.325 393.771 447 394.712 447 395.09C447 395.469 447.45 396.104 448 396.5C448.55 396.896 449 397.621 449 398.11C449 398.599 449.225 399 449.5 399C449.775 399 450 399.401 450 399.89C450 400.379 450.45 401.104 451 401.5C451.55 401.896 452 402.621 452 403.11C452 403.599 452.225 404 452.5 404C452.775 404 453 404.45 453 405C453 405.55 453.225 406 453.5 406C453.775 406 454 406.45 454 407C454 407.55 454.225 408 454.5 408C454.775 408 455 408.45 455 409C455 409.55 455.225 410 455.5 410C455.775 410 456 410.45 456 411C456 411.55 456.225 412 456.5 412C456.775 412 457 412.45 457 413C457 413.55 457.225 414 457.5 414C457.775 414 458 414.401 458 414.89C458 415.379 458.45 416.104 459 416.5C459.55 416.896 460 417.621 460 418.11C460 418.599 460.225 419 460.5 419C460.775 419 461 419.45 461 420C461 420.55 461.225 421 461.5 421C461.775 421 462 421.354 462 421.786C462 422.881 463.601 424.446 463.876 423.62C463.99 423.279 464.515 423 465.042 423C465.569 423 466 422.775 466 422.5C466 422.225 465.775 422 465.5 422C465.225 422 465 421.55 465 421C465 420.45 464.775 420 464.5 420C464.225 420 464 419.55 464 419C464 418.45 463.775 418 463.5 418C463.225 418 463 417.55 463 417C463 416.45 462.775 416 462.5 416C462.225 416 462 415.55 462 415C462 414.45 461.775 414 461.5 414C461.225 414 461 413.55 461 413C461 412.45 460.775 412 460.5 412C460.225 412 460 411.599 460 411.11C460 410.621 459.55 409.896 459 409.5C458.45 409.104 458 408.379 458 407.89C458 407.401 457.775 407 457.5 407C457.225 407 457 406.55 457 406C457 405.45 456.775 405 456.5 405C456.225 405 456 404.55 456 404C456 403.45 455.775 403 455.5 403C455.225 403 455 402.55 455 402C455 401.45 454.775 401 454.5 401C454.225 401 454 400.599 454 400.11C454 399.621 453.55 398.896 453 398.5C452.45 398.104 452 397.379 452 396.89C452 396.401 451.775 396 451.5 396C451.225 396 451 395.599 451 395.11C451 394.621 450.55 393.896 450 393.5C449.45 393.104 449 392.489 449 392.135C449 391.349 437.736 380 436.956 380C436.651 380 435.771 379.325 435 378.5C434.229 377.675 433.289 377 432.91 377C432.531 377 431.896 376.55 431.5 376C431.104 375.45 430.379 375 429.889 375C429.4 375 429 374.775 429 374.5C429 374.225 428.55 374 428 374C427.45 374 427 373.775 427 373.5C427 373.225 426.6 373 426.111 373C425.621 373 424.896 372.55 424.5 372C424.104 371.45 423.379 371 422.889 371C422.4 371 422 370.775 422 370.5C422 370.225 421.55 370 421 370C420.45 370 420 369.775 420 369.5C420 369.225 419.55 369 419 369C418.45 369 418 368.775 418 368.5C418 368.225 417.55 368 417 368C416.45 368 416 367.775 416 367.5C416 367.225 415.55 367 415 367C414.45 367 414 366.775 414 366.5C414 366.225 413.55 366 413 366C412.45 366 412 365.775 412 365.5C412 365.225 411.55 365 411 365C410.45 365 410 364.775 410 364.5C410 364.225 409.55 364 409 364C408.45 364 408 363.775 408 363.5C408 363.225 407.55 363 407 363C406.45 363 406 362.775 406 362.5C406 362.225 405.55 362 405 362C404.45 362 404 361.775 404 361.5C404 361.225 403.55 361 403 361C402.45 361 402 360.775 402 360.5C402 360.225 401.55 360 401 360C400.45 360 400 359.775 400 359.5C400 359.225 399.55 359 399 359C398.45 359 398 358.775 398 358.5C398 358.225 397.55 358 397 358C396.45 358 396 357.775 396 357.5C396 357.225 395.55 357 395 357C394.45 357 394 356.775 394 356.5C394 356.225 393.55 356 393 356C392.45 356 392 355.775 392 355.5C392 355.225 391.55 355 391 355C390.45 355 390 354.775 390 354.5C390 354.225 389.641 354 389.201 354C388.761 354 387.771 353.325 387 352.5C386.229 351.675 385.334 351 385.01 351C384.687 351 383.557 350.1 382.5 349C381.443 347.9 380.224 347 379.789 347C379.355 347 379 346.775 379 346.5C379 346.225 378.325 346 377.5 346C376.675 346 376 345.775 376 345.5C376 345.225 375.422 345 374.715 345C373.256 345 371.348 343.467 372.379 343.123C372.721 343.009 373 342.26 373 341.458C373 340.656 373.225 340 373.5 340C373.775 340 374 339.325 374 338.5C374 337.675 374.225 337 374.5 337C374.775 337 375 336.1 375 335C375 333.9 375.225 333 375.5 333C375.775 333 376 332.325 376 331.5C376 330.675 376.225 330 376.5 330C376.775 330 377 329.1 377 328C377 326.9 377.225 326 377.5 326C377.775 326 378 325.1 378 324C378 322.9 378.225 322 378.5 322C378.775 322 379 321.1 379 320C379 318.9 379.225 318 379.5 318C379.775 318 380 317.1 380 316C380 314.9 380.225 314 380.5 314C380.775 314 381 312.875 381 311.5C381 310.125 381.225 309 381.5 309C381.775 309 382 308.1 382 307C382 305.9 382.225 305 382.5 305C382.808 305 383 302.5 383 298.5C383 294.5 383.192 292 383.5 292C383.796 292 384 290.167 384 287.5C384 284.833 384.204 283 384.5 283C384.796 283 385 281.167 385 278.5C385 275.833 385.204 274 385.5 274C385.811 274 386 271.167 386 266.5C386 261.833 385.811 259 385.5 259C385.225 259 385 258.55 385 258C385 257.45 384.775 257 384.5 257C384.225 257 384 256.652 384 256.227C384 255.227 381.773 253 380.772 253C380.347 253 380 252.775 380 252.5C380 252.225 379.55 252 379 252C378.45 252 378 251.775 378 251.5C378 251.225 377.325 251 376.5 251C375.675 251 375 250.775 375 250.5C375 250.225 374.325 250 373.5 250C372.675 250 372 249.775 372 249.5C372 249.225 371.55 249 371 249C370.45 249 370 248.775 370 248.5C370 248.225 369.325 248 368.5 248C367.675 248 367 247.775 367 247.5C367 247.225 366.325 247 365.5 247C364.675 247 364 246.775 364 246.5C364 246.225 363.325 246 362.5 246C361.675 246 361 245.775 361 245.5C361 245.225 360.325 245 359.5 245C358.675 245 358 244.775 358 244.5C358 244.225 357.325 244 356.5 244C355.675 244 355 243.775 355 243.5C355 243.225 354.325 243 353.5 243C352.675 243 352 242.775 352 242.5C352 242.225 351.325 242 350.5 242C349.675 242 349 241.775 349 241.5C349 241.225 348.1 241 347 241C345.9 241 345 240.775 345 240.5C345 240.225 344.325 240 343.5 240C342.675 240 342 239.775 342 239.5C342 239.225 341.325 239 340.5 239C339.675 239 339 238.775 339 238.5C339 238.225 338.1 238 337 238C335.9 238 335 237.775 335 237.5C335 237.225 334.325 237 333.5 237C332.675 237 332 237.225 332 237.5C332 237.775 332.675 238 333.5 238C334.325 238 335 238.225 335 238.5C335 238.775 335.675 239 336.5 239C337.325 239 338 239.225 338 239.5C338 239.775 338.675 240 339.5 240C340.325 240 341 240.225 341 240.5C341 240.775 341.675 241 342.5 241C343.325 241 344 241.225 344 241.5C344 241.775 344.675 242 345.5 242C346.325 242 347 242.225 347 242.5C347 242.775 347.675 243 348.5 243C349.325 243 350 243.225 350 243.5C350 243.775 350.675 244 351.5 244C352.325 244 353 244.225 353 244.5C353 244.775 353.45 245 354 245C354.55 245 355 245.225 355 245.5C355 245.775 355.675 246 356.5 246C357.325 246 358 246.225 358 246.5C358 246.775 358.45 247 359 247C359.55 247 360 247.225 360 247.5C360 247.775 360.675 248 361.5 248C362.325 248 363 248.225 363 248.5C363 248.775 363.675 249 364.5 249C365.325 249 366 249.225 366 249.5C366 249.775 366.45 250 367 250C367.55 250 368 250.225 368 250.5C368 250.775 368.675 251 369.5 251C370.325 251 371 251.225 371 251.5C371 251.775 371.45 252 372 252C372.55 252 373 252.225 373 252.5C373 252.775 373.45 253 374 253C374.55 253 375 253.225 375 253.5C375 253.775 375.45 254 376 254C376.55 254 377 254.225 377 254.5C377 254.775 377.345 255 377.767 255C378.189 255 379.32 255.786 380.281 256.748L382.03 258.497L379.778 260.748C378.54 261.986 377.273 263 376.964 263C376.654 263 375.771 263.675 375 264.5C374.229 265.325 373.289 266 372.91 266C372.531 266 371.896 266.45 371.5 267C371.104 267.55 370.428 268 370 268C369.572 268 368.896 268.45 368.5 269C368.104 269.55 367.428 270 367 270C366.572 270 365.896 270.45 365.5 271C365.104 271.55 364.379 272 363.889 272C363.4 272 363 272.225 363 272.5C363 272.775 362.55 273 362 273C361.45 273 361 273.225 361 273.5C361 273.775 360.55 274 360 274C359.45 274 359 274.225 359 274.5C359 274.775 358.6 275 358.111 275C357.621 275 356.896 275.45 356.5 276C356.104 276.55 355.379 277 354.889 277C354.4 277 354 277.225 354 277.5C354 277.775 353.55 278 353 278C352.45 278 352 278.225 352 278.5C352 278.775 351.325 279 350.5 279C349.675 279 349 279.225 349 279.5C349 279.775 348.55 280 348 280C347.45 280 347 280.225 347 280.5C347 280.775 346.55 281 346 281C345.45 281 345 281.225 345 281.5C345 281.775 344.55 282 344 282C343.45 282 343 282.225 343 282.5C343 282.775 342.325 283 341.5 283C340.675 283 340 283.225 340 283.5C340 283.775 339.55 284 339 284C338.45 284 338 284.225 338 284.5C338 284.775 337.325 285 336.5 285C335.675 285 335 285.225 335 285.5C335 285.775 334.325 286 333.5 286C332.675 286 332 286.225 332 286.5C332 286.775 331.325 287 330.5 287C329.675 287 329 287.225 329 287.5C329 287.775 328.325 288 327.5 288C326.675 288 326 288.225 326 288.5C326 288.775 325.1 289 324 289C322.9 289 322 289.225 322 289.5C322 289.775 321.1 290 320 290C318.9 290 318 290.225 318 290.5C318 290.775 317.325 291 316.5 291C315.675 291 315 291.225 315 291.5C315 291.775 314.1 292 313 292C311.9 292 311 292.225 311 292.5C311 292.775 310.1 293 309 293C307.9 293 307 293.225 307 293.5C307 293.775 306.1 294 305 294C303.9 294 303 294.225 303 294.5C303 294.775 301.875 295 300.5 295C299.125 295 298 295.225 298 295.5C298 295.775 297.325 296 296.5 296C295.033 296 295 295.944 295 293.5C295 292.125 295.225 291 295.5 291C295.775 291 296 290.1 296 289C296 287.9 296.225 287 296.5 287C296.775 287 297 285.875 297 284.5C297 283.125 297.225 282 297.5 282C297.775 282 298 281.325 298 280.5C298 279.675 298.225 279 298.5 279C298.775 279 299 278.1 299 277C299 275.9 299.225 275 299.5 275C299.775 275 300 274.55 300 274C300 273.45 300.225 273 300.5 273C300.775 273 301 273.45 301 274C301 274.55 301.225 275 301.5 275C301.775 275 302 275.45 302 276C302 276.55 302.225 277 302.5 277C302.775 277 303 277.675 303 278.5C303 279.325 303.225 280 303.5 280C303.775 280 304 280.45 304 281C304 281.55 304.225 282 304.5 282C304.775 282 305 282.675 305 283.5C305 284.325 305.225 285 305.5 285C305.775 285 306 285.675 306 286.5C306 287.325 306.225 288 306.5 288C306.775 288 307 288.354 307 288.786C307 289.544 308.128 291 308.715 291C308.872 291 309 287.625 309 283.5C309 278.833 309.189 276 309.5 276C309.813 276 310 272.833 310 267.5C310 262.167 310.187 259 310.5 259C310.778 259 311 257.666 311 256C311 254.334 311.222 253 311.5 253C311.775 253 312 253.45 312 254C312 254.55 312.225 255 312.5 255C312.775 255 313 255.45 313 256C313 256.55 313.225 257 313.5 257C313.775 257 314 257.45 314 258C314 258.55 314.225 259 314.5 259C314.775 259 315 259.45 315 260C315 260.55 315.225 261 315.5 261C315.775 261 316 261.675 316 262.5C316 263.325 316.225 264 316.5 264C316.775 264 317 264.45 317 265C317 265.55 317.225 266 317.5 266C317.785 266 318 264.5 318 262.5C318 260.5 317.785 259 317.5 259C317.2 259 317 257 317 254C317 251 316.8 249 316.5 249C316.2 249 316 247 316 244C316 241 315.8 239 315.5 239C315.225 239 315 237.875 315 236.5C315 235.125 315.225 234 315.5 234C315.775 234 316 233.1 316 232C316 230.9 316.225 230 316.5 230C316.775 230 317 229.645 317 229.211C317 228.776 317.9 227.557 319 226.5C320.1 225.443 321 224.224 321 223.789C321 223.355 321.225 223 321.5 223C321.775 223 322 222.55 322 222C322 221.45 322.225 221 322.5 221C322.775 221 323 220.55 323 220C323 219.45 323.225 219 323.5 219C323.775 219 324 218.55 324 218C324 217.45 324.225 217 324.5 217C324.775 217 325 216.1 325 215C325 213.9 325.225 213 325.5 213C325.775 213 326 212.325 326 211.5C326 210.675 326.225 210 326.5 210C326.775 210 327 209.325 327 208.5C327 207.675 327.225 207 327.5 207C327.775 207 328 206.55 328 206C328 205.45 327.775 205 327.5 205C327.222 205 327 203.666 327 202C327 200.334 327.222 199 327.5 199C327.775 199 328 198.1 328 197C328 195.9 327.775 195 327.5 195C326.747 195 326.866 189.132 327.625 188.859C328.049 188.707 327.888 188.313 327.125 187.634C326.497 187.075 326 186.051 326 185.316C326 184.592 325.775 184 325.5 184C325.225 184 325 183.6 325 183.111C325 182.621 324.55 181.896 324 181.5C323.303 180.998 323 180.205 323 178.889C323 177.85 323.225 177 323.5 177C324.267 177 324.093 173.522 323.285 172.715C322.893 172.322 321.768 172 320.785 172C319.135 172 319 172.113 319 173.5ZM321 181.5C321 181.775 321.45 182 322 182C322.666 182 323 182.334 323 183C323 183.55 323.225 184 323.5 184C323.775 184 324 184.431 324 184.958C324 185.485 324.279 186.01 324.621 186.124C325.072 186.274 325.013 186.558 324.406 187.165C323.26 188.311 322 188.224 322 187C322 186.424 321.667 186 321.215 186C320.251 186 319 187.189 319 188.104C319 188.476 318.55 189.104 318 189.5C317.45 189.896 317 190.621 317 191.111C317 191.6 316.775 192 316.5 192C316.225 192 316 192.675 316 193.5C316 194.325 315.775 195 315.5 195C315.225 195 315 195.45 315 196C315 196.55 314.775 197 314.5 197C314.225 197 314 197.45 314 198C314 198.55 313.775 199 313.5 199C313.225 199 313 199.675 313 200.5C313 201.325 312.775 202 312.5 202C312.225 202 312 203.125 312 204.5C312 205.875 311.775 207 311.5 207C311.225 207 311 207.85 311 208.889C311 210.205 311.303 210.998 312 211.5C312.697 212.002 313 212.795 313 214.111C313 215.15 312.775 216 312.5 216C312.225 216 312 216.348 312 216.773C312 217.493 309.881 220 309.272 220C309.122 220 309 218.65 309 217C309 215.334 309.222 214 309.5 214C309.792 214 310 212.333 310 210C310 207.667 310.208 206 310.5 206C310.778 206 311 204.666 311 203C311 201.334 311.222 200 311.5 200C311.775 200 312 199.1 312 198C312 196.9 312.225 196 312.5 196C312.778 196 313 194.666 313 193C313 191.334 313.222 190 313.5 190C313.775 190 314 189.208 314 188.24C314 186.793 314.467 185.999 316.625 183.777C319.036 181.295 321 180.273 321 181.5ZM142 190.5C142 191.325 142.225 192 142.5 192C142.775 192 143 193.125 143 194.5C143 195.875 143.225 197 143.5 197C143.775 197 144 197.9 144 199C144 200.1 144.225 201 144.5 201C144.778 201 145 202.334 145 204C145 205.666 145.222 207 145.5 207C145.775 207 146 207.9 146 209C146 210.1 146.225 211 146.5 211C146.775 211 147 211.9 147 213C147 214.1 147.225 215 147.5 215C147.775 215 148 215.9 148 217C148 218.1 148.225 219 148.5 219C148.775 219 149 219.9 149 221C149 222.1 149.225 223 149.5 223C149.775 223 150 223.354 150 223.786C150 224.796 151.204 226 152.214 226C152.754 226 153 226.469 153 227.5C153 228.325 153.225 229 153.5 229C153.803 229 154 231.167 154 234.5C154 237.833 154.197 240 154.5 240C154.775 240 155 240.45 155 241C155 241.778 154.666 242 153.5 242C152.675 242 152 241.775 152 241.5C152 241.225 151.646 241 151.214 241C150.25 241 149 239.811 149 238.896C149 238.524 148.55 237.896 148 237.5C146.8 236.635 146.71 236 147.786 236C148.966 236 150 234.733 150 233.286C150 232.076 149.852 232 147.5 232C145.333 232 145 231.867 145 231C145 230.45 144.775 230 144.5 230C144.225 230 144 229.55 144 229C144 228.45 143.775 228 143.5 228C143.225 228 143 227.775 143 227.5C143 227.225 143.45 227 144 227C144.74 227 145 226.666 145 225.714C145 224.255 143.467 222.349 143.124 223.38C142.773 224.433 141 224.116 141 223C141 222.45 140.775 222 140.5 222C140.225 222 140 221.569 140 221.042C140 220.515 139.719 219.983 139.375 219.859C138.951 219.707 139.112 219.312 139.875 218.633C140.494 218.083 141 217.362 141 217.031C141 216.268 139.752 215 139 215C138.013 215 137 213.624 137 212.285C137 211.578 136.775 211 136.5 211C136.225 211 136 210.55 136 210C136 209.26 136.334 209 137.286 209C138.733 209 140 207.966 140 206.785C140 206.344 139.58 206 139.042 206C138.515 206 137.969 205.719 137.829 205.375C137.635 204.896 137.461 204.914 137.083 205.456C136.298 206.582 135 204.918 135 202.785C135 201.135 135.113 201 136.5 201C137.834 201 138 200.834 138 199.5C138 198.469 137.754 198 137.214 198C136.119 198 134.554 196.399 135.38 196.124C135.733 196.006 136 195.073 136 193.958C136 192.333 136.17 192 137 192C137.666 192 138 192.334 138 193C138 193.55 138.225 194 138.5 194C138.775 194 139 193.55 139 193C139 192.45 139.225 192 139.5 192C139.775 192 140 191.653 140 191.229C140 190.409 140.999 189.051 141.625 189.019C141.831 189.009 142 189.675 142 190.5ZM201 193.5C201 193.775 201.45 194 202 194C202.55 194 203 194.225 203 194.5C203 194.775 203.675 195 204.5 195C205.325 195 206 194.775 206 194.5C206 194.225 205.55 194 205 194C204.45 194 204 193.775 204 193.5C204 193.225 203.325 193 202.5 193C201.675 193 201 193.225 201 193.5ZM256 193.5C256 193.775 255.325 194 254.5 194C253.675 194 253 194.225 253 194.5C253 194.775 252.55 195 252 195C251.45 195 251 195.225 251 195.5C251 195.775 251.45 196 252 196C252.55 196 253 195.775 253 195.5C253 195.225 253.9 195 255 195C256.1 195 257 194.775 257 194.5C257 194.225 257.45 194 258 194C258.55 194 259 193.775 259 193.5C259 193.225 258.325 193 257.5 193C256.675 193 256 193.225 256 193.5ZM292 194.5C292 194.775 290.875 195 289.5 195C288.125 195 287 195.225 287 195.5C287 195.803 284.833 196 281.5 196C278.167 196 276 196.197 276 196.5C276 196.792 274.333 197 272 197C269.667 197 268 197.208 268 197.5C268 197.775 267.1 198 266 198C264.9 198 264 198.225 264 198.5C264 198.775 263.325 199 262.5 199C261.675 199 261 199.225 261 199.5C261 199.775 260.6 200 260.111 200C259.621 200 258.896 200.45 258.5 201C258.104 201.55 257.484 202 257.123 202C256.211 202 253 205.297 253 206.233C253 206.655 252.775 207 252.5 207C252.225 207 252 206.658 252 206.239C252 205.249 257.249 200 258.239 200C258.658 200 259 199.775 259 199.5C259 199.225 259.45 199 260 199C260.55 199 261 198.775 261 198.5C261 198.225 261.45 198 262 198C262.55 198 263 197.775 263 197.5C263 197.225 263.9 197 265 197C266.1 197 267 196.775 267 196.5C267 196.215 268.5 196 270.5 196C272.5 196 274 195.785 274 195.5C274 195.194 276.333 195 280 195C283.667 195 286 194.806 286 194.5C286 194.222 287.334 194 289 194C290.666 194 292 194.222 292 194.5ZM185 195.5C185 195.8 187 196 190 196C193 196 195 196.2 195 196.5C195 196.775 195.9 197 197 197C198.1 197 199 197.225 199 197.5C199 197.775 199.45 198 200 198C200.55 198 201 198.225 201 198.5C201 198.775 201.45 199 202 199C202.55 199 203 199.225 203 199.5C203 199.775 203.342 200 203.76 200C204.62 200 211.241 206.425 210.817 206.849C210.666 207.001 209.65 206.197 208.56 205.062C207.47 203.928 206.314 203 205.99 203C205.666 203 204.771 202.325 204 201.5C203.229 200.675 202.239 200 201.799 200C201.359 200 201 199.775 201 199.5C201 199.225 200.55 199 200 199C199.45 199 199 198.775 199 198.5C199 198.225 197.875 198 196.5 198C195.125 198 194 197.775 194 197.5C194 197.19 191.333 197 187 197C182.667 197 180 196.81 180 196.5C180 196.197 177.833 196 174.5 196C171.167 196 169 195.803 169 195.5C169 195.188 172 195 177 195C182 195 185 195.188 185 195.5ZM294.406 197.835C295.013 198.442 295.072 198.726 294.621 198.876C294.279 198.99 294 199.465 294 199.931C294 200.397 293.55 201.104 293 201.5C292.45 201.896 292 202.526 292 202.9C292 203.273 291.1 204.443 290 205.5C288.9 206.557 288 207.674 288 207.983C288 208.817 285.664 211 284.772 211C284.347 211 284 211.225 284 211.5C284 211.775 283.55 212 283 212C282.45 212 282 212.225 282 212.5C282 212.822 276.905 213 267.715 213C255.038 213 253.334 212.906 252.594 212.165C251.986 211.558 251.928 211.274 252.379 211.124C252.721 211.01 253 210.593 253 210.198C253 209.301 258.242 204 259.129 204C259.486 204 260.104 203.55 260.5 203C260.896 202.45 261.621 202 262.111 202C262.6 202 263 201.775 263 201.5C263 201.225 263.45 201 264 201C264.55 201 265 200.775 265 200.5C265 200.225 265.675 200 266.5 200C267.325 200 268 199.775 268 199.5C268 199.215 269.5 199 271.5 199C273.5 199 275 198.785 275 198.5C275 198.185 278.333 198 284 198C289.667 198 293 197.815 293 197.5C293 196.775 293.455 196.884 294.406 197.835ZM186 199.5C186 199.796 187.833 200 190.5 200C193.167 200 195 200.204 195 200.5C195 200.775 195.9 201 197 201C198.1 201 199 201.225 199 201.5C199 201.775 199.4 202 199.889 202C200.379 202 201.104 202.45 201.5 203C201.896 203.55 202.513 204 202.87 204C203.78 204 210 210.317 210 211.241C210 211.667 209.561 212 209 212C208.45 212 208 212.225 208 212.5C208 212.806 205.667 213 202 213C198.333 213 196 213.194 196 213.5C196 213.811 193.167 214 188.5 214C183.833 214 181 213.811 181 213.5C181 213.225 180.434 213 179.742 213C178.844 213 177.415 211.931 174.742 209.258C172.684 207.2 171 205.224 171 204.868C171 204.512 170.55 203.896 170 203.5C169.45 203.104 169 202.379 169 201.889C169 201.4 168.775 201 168.5 201C168.225 201 168 200.55 168 200C168 199.037 168.333 199 177 199C182.667 199 186 199.185 186 199.5ZM284 199.5C284 199.778 282.666 200 281 200C278.27 200 277.059 200.581 278.625 201.14C278.969 201.263 279.082 201.543 278.878 201.762C278.673 201.981 278.085 201.674 277.569 201.08C276.28 199.593 276 199.716 276 201.772C276 202.988 275.614 203.931 274.772 204.772C273.53 206.015 272 206.416 272 205.5C272 205.225 272.353 205 272.785 205C273.9 205 275 203.758 275 202.5C275 201.515 273.961 200 273.285 200C273.128 200 273 200.675 273 201.5C273 202.834 272.834 203 271.5 203C270.334 203 270 202.778 270 202C270 201.334 269.666 201 269 201C268.45 201 268 201.225 268 201.5C268 201.775 267.55 202 267 202C266.222 202 266 202.334 266 203.5C266 204.325 266.225 205 266.5 205C266.775 205 267 205.353 267 205.785C267 206.796 268.204 208 269.215 208C269.647 208 270 208.225 270 208.5C270 209.416 268.47 209.015 267.228 207.772C266.553 207.097 266 206.197 266 205.772C266 205.347 265.775 205 265.5 205C265.225 205 265 204.55 265 204C265 203.222 264.666 203 263.5 203C262.193 203 262 203.179 262 204.389C262 205.205 262.413 206.076 263 206.5C263.55 206.896 264 207.524 264 207.896C264 208.811 265.251 210 266.215 210C266.647 210 267 210.225 267 210.5C267 210.801 269.089 211 272.267 211H277.534L279.267 209.267C280.22 208.314 281 207.189 281 206.767C281 206.345 281.225 206 281.5 206C281.775 206 282 205.325 282 204.5C282 203.675 282.225 203 282.5 203C282.775 203 283 203.675 283 204.5C283 205.325 282.775 206 282.5 206C282.225 206 282 206.359 282 206.799C282 207.239 281.325 208.229 280.5 209C279.675 209.771 279 210.536 279 210.701C279 210.866 279.675 211 280.5 211C281.531 211 282 210.754 282 210.215C282 209.782 282.358 209.07 282.796 208.633C283.431 207.998 283.671 207.969 283.992 208.488C284.291 208.972 284.857 208.676 286.198 207.336C287.189 206.344 288 205.189 288 204.767C288 204.345 288.225 204 288.5 204C288.775 204 289 202.875 289 201.5C289 199.333 288.867 199 288 199C287.45 199 287 199.225 287 199.5C287 199.775 286.55 200 286 200C285.45 200 285 199.775 285 199.5C285 199.225 284.775 199 284.5 199C284.225 199 284 199.225 284 199.5ZM290 200.5C290 202.178 290.244 202.327 291.285 201.285C292.326 200.245 292.171 199 291 199C290.222 199 290 199.334 290 200.5ZM171 201.5C171 202.325 171.225 203 171.5 203C171.775 203 172 202.775 172 202.5C172 202.225 172.225 202 172.5 202C172.775 202 173 202.45 173 203C173 203.55 173.225 204 173.5 204C173.775 204 174 204.45 174 205C174 205.55 174.225 206 174.5 206C174.775 206 175 206.347 175 206.772C175 207.492 177.119 210 177.727 210C178.291 210 177.974 208.074 177.375 207.86C177.032 207.737 176.908 207.467 177.101 207.259C177.512 206.817 179 208.17 179 208.987C179 209.817 181.337 212 182.227 212C182.652 212 183 211.775 183 211.5C183 211.225 183.45 211 184 211C184.55 211 185 211.225 185 211.5C185 211.8 187 212 190 212C193 212 195 211.8 195 211.5C195 211.225 195.45 211 196 211C196.55 211 197 211.225 197 211.5C197 212.673 199.616 211.917 201.266 210.267C202.59 208.943 203 208.116 203 206.767C203 205.334 202.812 205 202 205C201.374 205 201 205.333 201 205.889C201 206.379 200.55 207.104 200 207.5C199.45 207.896 199 208.524 199 208.896C199 209.567 197.833 211 197.286 211C196.469 211 197.186 209.227 198.5 208C200.122 206.485 200.422 204.85 199.286 203.715C197.97 202.399 197 202.844 197 204.763C197 206.185 196.567 206.96 194.763 208.763C193.533 209.994 192.408 211 192.263 211C192.119 211 192 210.55 192 210C192 209.432 192.334 209 192.773 209C193.198 209 194.098 208.447 194.773 207.772C195.716 206.829 196 206.019 196 204.272C196 203.022 195.775 202 195.5 202C195.225 202 195 202.45 195 203C195 203.55 194.775 204 194.5 204C194.225 204 194 203.55 194 203C194 202.222 193.666 202 192.5 202C191.334 202 191 202.222 191 203C191 203.55 190.871 204 190.714 204C190.127 204 189 202.543 189 201.785C189 200.851 187.214 200.721 186.792 201.625C186.559 202.125 186.441 202.125 186.208 201.625C185.722 200.582 184 200.875 184 202C184 202.55 183.775 203 183.5 203C183.225 203 183 202.55 183 202C183 201.229 182.667 201 181.542 201C180.74 201 179.952 201.282 179.792 201.625C179.559 202.125 179.441 202.125 179.208 201.625C179.016 201.213 177.736 201 175.458 201C173.486 201 172 200.785 172 200.5C172 200.225 171.775 200 171.5 200C171.225 200 171 200.675 171 201.5ZM286 203C286 204.1 285.775 205 285.5 205C285.225 205 285 204.1 285 203C285 201.9 285.225 201 285.5 201C285.775 201 286 201.9 286 203ZM177 204C177 205.1 176.775 206 176.5 206C176.225 206 176 205.1 176 204C176 202.9 176.225 202 176.5 202C176.775 202 177 202.9 177 204ZM186.286 203.715C186.679 204.107 187 204.685 187 205C187 207.062 191.005 207.724 192.57 205.92C193.085 205.326 193.641 204.974 193.806 205.139C194.459 205.792 191.522 208 190 208C188.332 208 186 206.119 186 204.772C186 204.347 185.775 204 185.5 204C185.225 204 185 203.775 185 203.5C185 202.802 185.448 202.877 186.286 203.715ZM180 205C180 205.55 180.225 206 180.5 206C180.775 206 181 206.4 181 206.889C181 207.379 181.45 208.104 182 208.5C182.898 209.147 183.427 211 182.714 211C182.127 211 181 209.543 181 208.785C181 208.353 180.775 208 180.5 208C180.225 208 180 207.55 180 207C180 206.45 179.775 206 179.5 206C179.225 206 179 205.55 179 205C179 204.45 179.225 204 179.5 204C179.775 204 180 204.45 180 205ZM269 204.5C269 204.775 269.45 205 270 205C270.55 205 271 205.225 271 205.5C271 206.243 269.534 206.105 268.715 205.285C267.877 204.448 267.802 204 268.5 204C268.775 204 269 204.225 269 204.5ZM279 204.5C279 204.775 278.775 205 278.5 205C278.225 205 278 205.347 278 205.772C278 206.197 277.447 207.097 276.772 207.772C276.097 208.447 275.197 209 274.772 209C274.347 209 274 209.225 274 209.5C274 209.775 273.325 210 272.5 210C271.675 210 271 209.775 271 209.5C271 209.225 271.625 209 272.389 209C273.205 209 274.076 208.587 274.5 208C274.896 207.45 275.621 207 276.111 207C276.6 207 277 206.653 277 206.229C277 205.409 277.999 204.051 278.625 204.019C278.831 204.009 279 204.225 279 204.5ZM184 205.767C184 207.027 187.325 210 188.734 210C189.43 210 190 210.225 190 210.5C190 210.775 189.431 211 188.737 211C187.907 211 186.705 210.232 185.237 208.763C183.135 206.662 182.368 205 183.5 205C183.775 205 184 205.345 184 205.767ZM242 206.5C242 207.325 241.775 208 241.5 208C241.225 208 241 208.9 241 210C241 211.1 240.775 212 240.5 212C240.225 212 240 212.9 240 214C240 215.1 239.775 216 239.5 216C239.225 216 239 216.45 239 217C239 217.666 239.334 218 240 218C240.55 218 241 218.225 241 218.5C241 218.775 242.125 219 243.5 219H246V222C246 224.667 245.889 225 245 225C244.45 225 244 225.225 244 225.5C244 225.778 242.666 226 241 226H238V218C238 213 238.188 210 238.5 210C238.775 210 239 209.55 239 209C239 208.45 239.225 208 239.5 208C239.775 208 240 207.653 240 207.229C240 206.409 240.999 205.051 241.625 205.019C241.831 205.009 242 205.675 242 206.5ZM259 206.267C259 207.046 259.668 208.201 260.733 209.267C261.799 210.332 262.954 211 263.733 211C265.362 211 265.328 210.707 263.5 209C262.675 208.229 262 207.335 262 207.013C262 206.175 260.708 205 259.785 205C259.278 205 259 205.449 259 206.267ZM285 207C285 207.55 284.775 208 284.5 208C284.225 208 284 207.55 284 207C284 206.45 284.225 206 284.5 206C284.775 206 285 206.45 285 207ZM204 207.889C204 208.379 203.55 209.104 203 209.5C201.967 210.244 201.616 212 202.5 212C202.775 212 203 211.775 203 211.5C203 211.225 203.579 211 204.286 211C204.993 211 205.906 210.666 206.315 210.257C206.973 209.599 206.914 209.369 205.802 208.257C204.311 206.766 204 206.702 204 207.889ZM256.625 207.748C256.282 208.138 256 208.786 256 209.187C256 209.589 255.719 210.017 255.375 210.14C255.032 210.263 254.931 210.556 255.152 210.792C255.374 211.028 255.784 210.89 256.065 210.486C256.452 209.929 256.638 209.902 256.829 210.375C257.07 210.967 261 211.305 261 210.733C261 210.451 257.634 206.987 257.392 207.019C257.314 207.03 256.969 207.357 256.625 207.748ZM143 210C143 210.55 142.775 211 142.5 211C142.225 211 142 212.125 142 213.5C142 214.875 142.225 216 142.5 216C142.775 216 143 216.348 143 216.773C143 217.746 145.441 220.234 145.906 219.734C146.095 219.53 145.969 219.263 145.625 219.14C145.282 219.017 145 218.535 145 218.068C145 217.602 144.55 216.896 144 216.5C143.303 215.998 143 215.205 143 213.889C143 212.85 143.225 212 143.5 212C143.775 212 144 211.325 144 210.5C144 209.675 143.775 209 143.5 209C143.225 209 143 209.45 143 210ZM224 223C224 226.667 223.916 227 223 227C222.45 227 222 226.775 222 226.5C222 226.222 220.666 226 219 226C216.333 226 216 225.889 216 225C216 224.45 215.775 224 215.5 224C215.225 224 215 223.1 215 222C215 220.334 215.166 220 216 220C216.55 220 217 219.775 217 219.5C217 219.215 218.5 219 220.5 219H224V223ZM240 232.5C240 232.778 241.334 233 243 233H246V236.5V240H242H238V236.729C238 234.824 238.261 233.161 238.625 232.748C239.362 231.911 240 231.796 240 232.5ZM224 236.286C224 238.467 223.76 239.812 223.286 240.286C222.467 241.105 221 241.243 221 240.5C221 240.222 219.666 240 218 240H215V236.5V233H219.5H224V236.286ZM129 238.5C129 238.775 129.675 239 130.5 239C131.325 239 132 238.775 132 238.5C132 238.225 131.325 238 130.5 238C129.675 238 129 238.225 129 238.5ZM224 251V255H220H216V251.5C216 248.333 216.095 248 217 248C217.55 248 218 247.775 218 247.5C218 247.222 219.334 247 221 247H224V251ZM246 248.958C246 250.036 246.281 251.048 246.625 251.208C247.125 251.441 247.125 251.559 246.625 251.792C246.282 251.952 246 252.515 246 253.042C246 253.907 245.609 254 242 254H238V250.5V247H242H246V248.958ZM225.286 263.714C226.209 264.637 226.189 265 225.214 265C224.456 265 223 263.873 223 263.286C223 262.719 224.588 263.016 225.286 263.714ZM239 263.286C239 263.443 238.679 263.893 238.286 264.286C237.245 265.327 236 265.171 236 264C236 263.222 236.334 263 237.5 263C238.325 263 239 263.129 239 263.286ZM162.286 269.714C162.679 270.107 163 271.232 163 272.214C163 273.196 163.225 274 163.5 274C163.778 274 164 275.334 164 277C164 278.666 164.222 280 164.5 280C164.778 280 165 281.334 165 283C165 284.666 165.222 286 165.5 286C165.778 286 166 287.334 166 289C166 290.666 166.222 292 166.5 292C166.775 292 167 292.225 167 292.5C167 292.775 165.875 293 164.5 293C163.125 293 162 292.775 162 292.5C162 292.225 161.421 292 160.714 292C158.706 292 158 290.903 158 287.786C158 286.254 158.225 285 158.5 285C158.792 285 159 283.333 159 281C159 278.667 159.208 277 159.5 277C159.775 277 160 275.875 160 274.5C160 273.125 160.225 272 160.5 272C160.775 272 161 271.325 161 270.5C161 268.822 161.245 268.673 162.286 269.714ZM245 279.5C245 279.775 245.9 280 247 280C248.1 280 249 280.225 249 280.5C249 280.775 249.45 281 250 281C250.666 281 251 281.334 251 282C251 282.55 250.775 283 250.5 283C250.225 283 250 282.775 250 282.5C250 282.225 249.1 282 248 282C246.9 282 246 281.775 246 281.5C246 281.222 244.666 281 243 281C241.334 281 240 280.778 240 280.5C240 280.188 237 280 232 280C227 280 224 280.188 224 280.5C224 280.792 222.333 281 220 281C217.667 281 216 281.208 216 281.5C216 281.778 214.666 282 213 282C211.334 282 210 281.778 210 281.5C210 281.225 210.675 281 211.5 281C212.325 281 213 280.775 213 280.5C213 280.225 214.125 280 215.5 280C216.875 280 218 279.775 218 279.5C218 279.179 222.833 279 231.5 279C240.167 279 245 279.179 245 279.5ZM220 291C220 293.333 220.208 295 220.5 295C220.775 295 221 295.225 221 295.5C221 295.775 220.55 296 220 296C219.334 296 219 295.666 219 295C219 294.45 218.775 294 218.5 294C218.225 294 218 293.55 218 293C218 292.45 217.775 292 217.5 292C217.225 292 217 291.325 217 290.5C217 289.675 216.775 289 216.5 289C216.225 289 216 288.55 216 288C216 287.166 216.334 287 218 287H220V291ZM245 287.5C245 287.775 244.775 288 244.5 288C244.225 288 244 288.675 244 289.5C244 290.325 243.775 291 243.5 291C243.225 291 243 291.675 243 292.5C243 293.325 242.775 294 242.5 294C242.225 294 242 294.45 242 295C242 296.208 241.683 296.255 240.633 295.205C239.955 294.527 239.943 294.336 240.544 293.917C241.086 293.539 241.104 293.365 240.625 293.17C240.244 293.015 240 291.956 240 290.458C240 289.106 239.775 288 239.5 288C239.225 288 239 287.775 239 287.5C239 287.222 240.334 287 242 287C243.666 287 245 287.222 245 287.5ZM262 307.5C262 307.775 261.55 308 261 308C260.222 308 260 308.334 260 309.5C260 310.325 260.225 311 260.5 311C260.82 311 261 315.667 261 324C261 332.333 260.82 337 260.5 337C260.179 337 260 341.833 260 350.5C260 359.167 260.179 364 260.5 364C260.825 364 261 371.167 261 384.5C261 397.833 260.825 405 260.5 405C260.215 405 260 406.5 260 408.5C260 410.5 259.785 412 259.5 412C259.225 412 259 413.125 259 414.5V417H263C266.667 417 267 416.916 267 416C267 415.45 267.225 415 267.5 415C267.792 415 268 413.333 268 411C268 408.667 268.208 407 268.5 407C268.792 407 269 405.333 269 403C269 400.667 269.208 399 269.5 399C269.792 399 270 397.333 270 395C270 392.667 270.208 391 270.5 391C270.82 391 271 386.333 271 378C271 369.667 271.18 365 271.5 365C271.81 365 272 362.333 272 358C272 353.667 272.19 351 272.5 351C272.826 351 273 343.571 273 329.714C273 311.933 272.882 308.311 272.285 307.714C271.435 306.863 262 306.667 262 307.5Z" fill="white"/>
</svg>
