<svg width="203" height="511" viewBox="0 0 203 511" fill="none" xmlns="http://www.w3.org/2000/svg">
<path fill-rule="evenodd" clip-rule="evenodd" d="M14.084 0.548036C9.86801 0.767036 5.19901 1.19903 3.70901 1.50853C1.28001 2.01303 1.00001 2.20354 1.00001 3.35454C1.00001 4.81354 0.364012 4.82254 12 3.20104C17.8455 2.38604 27.1915 2.17404 36.562 2.64304C39.4155 2.78554 40.9625 2.80954 40 2.69654C35.609 2.17904 35 1.96954 35 0.977537C35 0.0530366 34.641 0.00403641 28.375 0.0750364C24.731 0.116036 18.3005 0.329036 14.084 0.548036ZM46.25 3.54904C47.075 3.80354 50 4.33904 52.75 4.73854C57.626 5.44704 61.9605 6.41504 65.5 7.58704C66.4625 7.90554 68.4875 8.44354 70 8.78304C74.5625 9.80604 80.6865 11.467 81.75 11.969C82.3 12.2285 84.4375 13.1565 86.5 14.0305C88.5625 14.9045 91.825 16.355 93.75 17.2535C95.675 18.1525 98.6305 19.532 100.318 20.319C102.628 21.3965 105.135 23.413 110.47 28.485C116.521 34.2375 118.043 36.008 120.902 40.618C131.875 58.3095 141.136 76.078 142.015 81.1215C142.892 86.159 141.369 89 137.791 89C135.343 89 134.48 88.0585 132.349 83.063C131.575 81.2485 130.618 79.406 130.221 78.968C129.825 78.5295 129.5 78.03 129.5 77.858C129.5 77.6855 128.994 76.782 128.375 75.8505C127.756 74.919 126.695 73.2595 126.015 72.163C125.336 71.0665 123.77 69.4 122.535 68.4595C118.725 65.558 111.372 57.8665 108.874 54.1685C106.775 51.0625 103.512 47.5655 100.875 45.5965C99.447 44.5305 99.893 45.606 101.768 47.75C103.192 49.3775 105.5 54.0695 105.5 55.334C105.5 55.4975 104.769 55.5005 103.875 55.341C88.2925 52.5635 84.262 52.371 79.72 54.188C72.49 57.0805 69.5965 59.3375 63.2955 67C60.921 69.8875 58.6855 72.5875 58.327 73C55.545 76.204 55 77.3805 55 80.182C55 83.701 53.21 88.34 51.0295 90.471C50.1695 91.312 49.2485 92 48.983 92C48.3315 92 47.0635 90.638 45.211 87.949C43.7815 85.874 43.2 85.527 37.0295 83.0685C33.376 81.613 29.231 80.217 27.8185 79.966C24.16 79.317 7.28601 78.7865 3.87151 79.213L1.00001 79.572L1.02801 90.411C1.05901 102.31 1.00701 102.234 3.54401 94.066C4.64901 90.5095 4.81051 90.29 8.21901 87.7315C10.75 85.8315 13.051 84.6395 16.344 83.5215C20.408 82.1415 21.475 81.9785 25.594 82.106L30.25 82.25L30.111 86.5C29.7675 96.992 28.86 114.427 28.565 116.196C28.2595 118.029 28.0965 118.181 25.7455 118.817C24.373 119.189 22.2375 119.709 21 119.973C17.528 120.715 2.12101 122.134 1.52751 121.767C1.20851 121.57 1.00001 121.962 1.00001 122.76C1.00001 123.93 1.15601 124.05 2.37501 123.817C5.38651 123.243 10.9575 122.531 14.75 122.237C19.826 121.844 23.783 120.947 31 118.553C49.0875 112.555 49.4475 112.456 55.8685 111.721C59.3785 111.32 64.3875 110.576 67 110.069C90.776 105.451 101.277 103.878 110.078 103.616C118.865 103.355 117.474 102.994 128.118 108.297C132.112 110.286 141.753 117.164 146.109 121.13C147.815 122.684 150.022 127.197 153.502 136.25C154.136 137.9 155.083 140.224 155.607 141.413C156.131 142.603 156.49 144.065 156.405 144.663C156.265 145.65 156.09 145.565 154.523 143.75C153.573 142.65 150.86 139.838 148.493 137.5C144.344 133.402 144.032 133.201 139.72 131.861C133.974 130.075 132.022 129.688 124.12 128.764C118.318 128.086 117.144 128.085 113.303 128.755C105.366 130.139 102.37 131.851 94.059 139.75C90.48 143.152 81.4655 153.781 79 157.506C78.5875 158.129 77.781 159.227 77.2075 159.945C76.634 160.663 74.7135 163.388 72.94 166C71.1665 168.613 69.2375 171.425 68.6535 172.25C67.2495 174.235 59.536 186.144 57.8055 189C57.0555 190.238 55.418 192.938 54.166 195C51.62 199.195 47.6235 206.968 44.5265 213.75C43.396 216.225 42.2495 218.646 41.978 219.131C41.707 219.615 39.666 224.115 37.4435 229.131C35.2205 234.146 32.6365 239.886 31.701 241.886C30.7655 243.886 30 245.707 30 245.934C30 246.16 29.6035 246.704 29.1185 247.143C28.397 247.796 25.876 248.044 15.2435 248.51C8.09701 248.823 1.96851 249.167 1.62501 249.274C1.13001 249.428 1.00001 261.2 1.00001 305.936V362.402L8.62501 370.076C16.181 377.681 17.4825 379.061 26.2335 388.751C28.7175 391.502 31.65 394.671 32.75 395.794C45.406 408.719 50.526 414.551 53.347 419.255C56.084 423.818 61.7485 434.266 68.119 446.5C69.6225 449.388 72.433 454.675 74.3645 458.25C79.0585 466.939 80.863 470.311 83.996 476.25C85.447 479 86.8005 481.475 87.004 481.75C88.8195 484.204 92.238 492.269 95.0085 500.636L98.358 510.75L122.179 510.88C136.787 510.96 146 510.828 146 510.54C146 510.282 145.156 508.755 144.125 507.148C143.094 505.54 141.983 503.78 141.657 503.237C138.94 498.716 136.164 493.994 135.491 492.75C135.044 491.925 134.049 490.125 133.28 488.75C132.51 487.375 130.767 484.225 129.405 481.75C128.044 479.275 126.736 476.913 126.497 476.5C125.735 475.181 112.16 447.856 110.848 445C110.153 443.488 108.441 439.812 107.043 436.832C105.644 433.852 104.5 431.334 104.5 431.237C104.5 431.139 103.626 429.19 102.557 426.905C101.489 424.62 100.113 421.625 99.5 420.25C98.887 418.875 97.835 416.513 97.162 415C96.489 413.488 95.727 411.859 95.4685 411.382C95.2105 410.904 94.691 409.666 94.314 408.632C93.539 406.506 90.216 398.274 89.517 396.75C89.265 396.2 88.361 394.063 87.5085 392C86.656 389.938 85.605 387.463 85.173 386.5C84.741 385.538 83.9685 383.446 83.457 381.852C82.593 379.159 82.583 378.813 83.3185 376.975C84.3925 374.291 86.7595 372.331 88.4235 372.749C89.119 372.924 89.978 373.445 90.332 373.908C91.3495 375.238 97.7575 386.779 102.877 396.5C104.108 398.838 105.286 400.975 105.495 401.25C105.704 401.525 107.284 404.443 109.007 407.734C110.73 411.026 112.59 414.513 113.14 415.484C113.69 416.456 115.053 418.938 116.168 421C117.284 423.063 118.704 425.65 119.324 426.75C119.944 427.85 120.902 429.65 121.453 430.75C122.004 431.85 123.33 434.325 124.398 436.25C125.467 438.175 127.419 441.775 128.737 444.25C130.055 446.725 132.194 450.663 133.491 453C134.789 455.338 136.585 458.6 137.483 460.25C145.139 474.317 156.432 493.451 158.12 495.218L159.107 496.25L158.745 494.5C158.403 492.85 157.179 490.224 151.169 478.25C149.789 475.5 148.361 472.463 147.996 471.5C147.631 470.538 147.169 469.525 146.968 469.25C146.768 468.975 146.368 467.963 146.08 467C145.792 466.038 144.847 463.338 143.98 461C143.113 458.663 142.103 455.85 141.734 454.75C138.126 443.984 131.576 429.984 125.008 419C123.205 415.984 115.206 404.001 111.826 399.25C108.039 393.928 100 380.852 100 380.014C100 378.981 100.971 377.997 101.975 378.012C103.241 378.031 108.428 380.316 110.66 381.837C114.479 384.439 116.313 386.826 122.695 397.5C124.093 399.838 125.507 402.2 125.838 402.75C126.169 403.3 126.867 404.538 127.39 405.5C127.913 406.463 129.394 409.163 130.681 411.5C132.828 415.399 138.702 427.154 159.79 469.75C166.346 482.994 170.244 489.913 174.66 496.146C175.534 497.38 175.534 497.483 174.678 498.791C174.187 499.539 173.372 502.086 172.867 504.451C172.361 506.815 171.82 509.257 171.665 509.875L171.384 511H186.942C197.746 511 202.5 510.835 202.5 510.46C202.5 509.99 201.018 503.251 197.452 487.5C195.372 478.316 190.244 457.745 188.478 451.5C187.973 449.713 187.08 446.45 186.494 444.25C180.646 422.275 174.92 409.337 164.224 393.93C160.033 387.893 154.669 382.346 147 376.12C140.245 370.635 137.208 368.84 120.5 360.459C111.838 356.113 103.015 351.476 100.895 350.154C97.1635 347.828 92.6985 343.822 87.011 337.699C81.8285 332.119 81.4115 331.567 81.8395 330.852C82.0655 330.476 85.625 327.128 89.75 323.413C97.6345 316.312 97.3855 316.468 110.414 310.438C112.704 309.378 115.291 308.177 116.164 307.77C117.476 307.158 134.666 301.683 146.75 298.029C148.4 297.53 151.55 296.561 153.75 295.875C158.811 294.296 167.21 291.742 171.75 290.4C176.033 289.134 179.365 287.574 179.71 286.674C180.009 285.897 179.212 285.753 178.75 286.5C178.292 287.242 176.761 287.108 174.752 286.15C171.74 284.714 171.765 281.7 174.8 280.26C176.187 279.602 176.883 279.536 178.069 279.949C180.542 280.811 179.567 279.556 175.797 277.024L172.411 274.75L172.76 263.5C172.951 257.313 173.517 245.95 174.016 238.25C174.919 224.333 174.935 224.225 176.668 219.997C178.204 216.249 178.359 215.478 177.977 213.497C177.739 212.261 177.534 210.39 177.522 209.339C177.503 207.634 177.089 207.02 173.687 203.64L169.874 199.851L170.456 197.051C172.861 185.463 173.753 181.225 175.306 174C176.651 167.74 178.215 158.2 178.764 152.899L179.112 149.547L177.681 149.227C176.894 149.051 175.872 148.806 175.411 148.681C174.197 148.355 166.845 149.93 164.903 150.934C162.961 151.937 161.301 152.959 157.36 155.579C153.963 157.837 153.5 157.918 153.5 156.257C153.5 155.354 154.068 154.634 155.572 153.632C156.711 152.872 158.567 151.636 159.697 150.885C160.826 150.134 162.168 149.515 162.679 149.51C163.318 149.503 163.513 149.254 163.304 148.71C162.095 145.561 160.485 140.01 159.615 136C156.29 120.658 155.177 115.837 151.747 101.907C149.752 93.803 148.851 90.9085 146.097 83.75C145.568 82.375 144.187 78.775 143.029 75.75C140.287 68.591 137.237 62.4555 131.43 52.413C130.369 50.5775 129.5 48.931 129.5 48.7545C129.5 48.384 127.156 45.139 126.019 43.9365C125.596 43.489 124.8 42.4935 124.25 41.724C120.465 36.4295 110.665 24.822 108.23 22.75C106.615 21.375 104.657 19.6705 103.88 18.962C103.103 18.2535 100.844 17.057 98.859 16.3025C96.874 15.5485 92.8875 14.0305 90 12.929C87.1125 11.828 83.625 10.5065 82.25 9.99304C79.8695 9.10404 73.2545 7.42404 69.5 6.75454C68.5375 6.58304 66.4 6.12204 64.75 5.72954C60.364 4.68704 49.069 3.00454 46.75 3.04854C44.7625 3.08554 44.759 3.08904 46.25 3.54904ZM144.214 65.5C144.462 66.9235 154.863 98.3445 155.474 99.5165C155.693 99.938 156.038 101.063 156.239 102.017C156.581 103.633 157.039 104.89 158.419 108C158.959 109.216 158.966 109.21 158.704 107.75C157.872 103.131 154.631 90.9305 152.727 85.25C150.249 77.855 143.731 62.735 144.214 65.5ZM166.662 133.301C166.288 134.274 166.81 140.76 167.577 144.673C168.142 147.56 168.167 147.592 169.637 147.298C170.455 147.134 172.335 147 173.813 147C175.291 147 176.5 146.787 176.5 146.527C176.5 145.943 173.565 140.872 170.652 136.424C168.359 132.923 167.165 131.988 166.662 133.301ZM152.686 183.875C152.852 184.356 153.947 186.263 155.119 188.112C156.291 189.96 159.135 194.534 161.439 198.276C165.285 204.523 165.575 205.176 164.993 206.263C164.645 206.914 164.11 207.54 163.805 207.653C163.5 207.766 161.225 206.89 158.75 205.706C145.839 199.532 139.514 196.584 134.121 194.225C131.682 193.158 128.044 194.083 125.285 196.47C123.575 197.95 122.557 198.413 120.471 198.661C118.401 198.906 117.457 199.331 116.133 200.612C114.635 202.062 114.144 202.243 111.846 202.186C107.704 202.083 102.95 200.331 97.75 196.992C96.925 196.462 95.4625 195.58 94.5 195.031C93.5375 194.483 92.1875 193.564 91.5 192.988L90.25 191.943L91.75 192.195C92.575 192.334 94.9375 192.587 97 192.756C99.0625 192.926 101.988 193.274 103.5 193.529C105.013 193.784 109.15 194.311 112.695 194.699L119.14 195.407L123.695 193.729C126.2 192.806 130.05 191.349 132.25 190.491C134.45 189.633 136.813 188.737 137.5 188.5C138.188 188.263 140.55 187.362 142.75 186.498C144.95 185.634 147.538 184.698 148.5 184.417C149.463 184.137 150.464 183.703 150.725 183.454C151.478 182.735 152.357 182.924 152.686 183.875ZM157.708 186.625C159.229 188.619 161.39 191.488 162.51 193C163.63 194.513 165.998 197.711 167.773 200.108C169.548 202.504 171 204.586 171 204.733C171 204.88 170.469 205 169.819 205C169.035 205 167.898 204.174 166.444 202.548C163.357 199.096 163.31 199.031 161.314 195.335C159.219 191.455 157.683 189.016 155.605 186.275C154.782 185.189 154.221 184.008 154.358 183.65C154.495 183.293 154.682 183 154.775 183C154.867 183 156.187 184.631 157.708 186.625ZM174.729 208.183C177.16 210.614 176.612 217.819 173.655 222.322C172.655 223.844 172.72 222.739 171.48 259.625C171.103 270.832 170.629 280 170.426 280C170.095 280 162.048 277.38 158.25 276.036C157.425 275.744 154.725 274.83 152.25 274.005C149.775 273.18 146.85 272.196 145.75 271.819C144.65 271.441 143.114 270.981 142.335 270.797C141.064 270.495 140.954 270.568 141.255 271.517C141.653 272.769 140.305 274.5 138.933 274.5C137.836 274.5 131.751 272.676 130.002 271.823C129.228 271.445 128.658 270.659 128.501 269.752C128.304 268.619 127.855 268.162 126.499 267.719C123.922 266.876 119.18 265.369 110.75 262.714C106.625 261.415 99.65 259.183 95.25 257.753C90.85 256.323 85.225 254.529 82.75 253.765C80.275 253.002 74.223 251.055 69.3005 249.439C64.3785 247.823 60.047 246.5 59.6755 246.5C58.401 246.5 59 245.122 60.554 244.478C61.9855 243.885 62.765 244.057 70.429 246.66C85.1495 251.659 109.561 259.994 116.25 262.306C125.599 265.536 125.692 265.549 123.032 263.205C121.811 262.13 118.774 259.45 116.282 257.249C113.789 255.048 109.95 251.688 107.75 249.781C105.55 247.875 103.239 245.799 102.615 245.169C101.488 244.03 100.512 241 101.272 241C101.64 241 116.446 252.792 117 253.526C117.432 254.099 123.214 258.786 124 259.202C124.879 259.666 121.451 256.301 115.583 250.939L111.416 247.131L114.547 242.691C119.848 235.173 123.552 231.061 127.75 228.03C133.508 223.874 135.406 222.768 138.5 221.762C140.013 221.27 141.522 220.653 141.853 220.391C142.615 219.789 152.827 218.879 154.5 219.264C155.188 219.423 156.411 220.089 157.22 220.745C158.988 222.181 159.279 221.46 152.783 231.75C150.18 235.875 147.625 239.925 147.106 240.75C146.587 241.575 145.735 242.925 145.212 243.75C143.511 246.437 143.262 246.847 142.305 248.56C141.785 249.49 141.199 250.363 141 250.5C140.802 250.638 140.239 251.538 139.75 252.5C139.261 253.463 138.709 254.363 138.522 254.5C138.336 254.638 137.456 255.988 136.565 257.5C135.675 259.013 134.273 261.347 133.451 262.687C132.629 264.027 132.063 265.229 132.192 265.358C132.321 265.488 132.759 264.951 133.165 264.165C133.571 263.38 135.331 260.564 137.077 257.909C138.822 255.253 141.137 251.656 142.222 249.916C145.561 244.553 153.838 231.544 156.483 227.5C158.718 224.082 161.645 218.352 162.495 215.729C163.571 212.41 165.396 209.155 166.801 208.05C168.774 206.498 173.117 206.571 174.729 208.183ZM168.149 211.453C167.07 212.354 162.952 220.036 162.228 222.5C162.026 223.188 161.161 224.888 160.306 226.279C159.45 227.671 158.484 229.246 158.158 229.779C157.142 231.443 145.173 251.716 144.3 253.25C143.987 253.8 142.085 257.025 140.073 260.416C138.061 263.807 136.49 266.642 136.582 266.716C136.851 266.931 147.028 270.487 149.5 271.229C150.738 271.601 155.295 273.141 159.627 274.652C163.959 276.164 167.601 277.241 167.721 277.047C167.841 276.853 168.208 264.894 168.536 250.472L169.132 224.25L171.066 220.317C174.038 214.273 173.685 210.452 170.158 210.517C169.659 210.526 168.755 210.947 168.149 211.453ZM136.231 277.025C144.643 279.673 146.08 280.12 157 283.476C160.713 284.618 164.875 285.899 166.25 286.324C170.388 287.603 170.372 287.747 165.919 289.187C163.626 289.928 161.3 290.725 160.75 290.958C160.2 291.191 146.25 295.817 129.75 301.239C113.25 306.66 99.3595 311.299 98.882 311.548C98.4045 311.797 97.7295 312.007 97.382 312.014C96.4685 312.034 93.826 314.134 88.274 319.25C83.66 323.502 82 324.844 82 324.322C82 323.31 84.711 319.515 87.6225 316.452C89.5575 314.416 94.909 308.813 99.514 304C104.119 299.188 108.617 294.463 109.508 293.5C119.44 282.78 127.467 274.5 127.929 274.5C128.085 274.5 131.82 275.636 136.231 277.025ZM127.193 278.608C126.399 279.217 125.628 279.887 125.478 280.096C125.089 280.641 111.654 295.195 105.118 302.152C102.332 305.119 102.006 305.663 102.57 306.402C102.926 306.869 103.23 307.293 103.246 307.345C103.284 307.474 107.288 306.112 116 303.006C119.988 301.585 123.813 300.23 124.5 299.995C126.489 299.315 155.823 288.923 158.413 287.981C159.328 287.648 159.89 287.207 159.663 287C159.436 286.793 156.888 285.9 154 285.015C143.957 281.938 142.234 281.398 139.5 280.475C135.887 279.254 129.776 277.5 129.139 277.5C128.862 277.5 127.986 277.999 127.193 278.608ZM41.154 305.804C43.425 308.301 46.6485 310.164 49.6395 310.707C54.004 311.501 56.32 314.184 56.15 318.25C55.884 324.6 50.52 330.105 45.9185 328.751C42.884 327.859 40.0145 326.073 37.5 323.513C30.7655 316.656 29.622 308.194 34.949 304.635C37.5075 302.926 38.7485 303.16 41.154 305.804ZM78.4475 328.373C77.895 329.662 77.2535 330.949 77.022 331.234C75.7785 332.76 72.5 340.114 72.5 341.377C72.5 343.394 73.5975 345.416 75.85 347.55C78.4105 349.975 79.8545 353.049 80.5355 357.523C80.8475 359.573 81.2105 361.813 81.342 362.5C81.474 363.188 82.5945 364.72 83.8325 365.906C85.1885 367.206 85.9735 368.349 85.807 368.782C85.441 369.735 84.1835 369.7 83.8095 368.725C83.646 368.299 82.267 367.38 80.745 366.684C77.8165 365.343 76.5255 363.618 75.7445 360.002C75.5365 359.041 75.0785 357.578 74.7265 356.752C73.8885 354.786 71.6555 347.667 71.271 345.738C71.094 344.849 70.2555 343.656 69.235 342.842C67.2535 341.261 67.0755 340.175 68.5 338.364C69.05 337.665 69.5 336.952 69.5 336.78C69.5 336.609 70.5325 334.901 71.795 332.985C74.0465 329.567 78.3305 325.337 79.0745 325.796C79.282 325.925 79 327.084 78.4475 328.373ZM118.313 378.744C122.048 380.305 134.028 390.772 140.855 398.439C144.396 402.416 150.118 409.728 152.886 413.812C154.627 416.38 158.186 421.895 158.816 423C159.208 423.688 159.939 424.925 160.443 425.75C162.713 429.47 164.012 431.886 168.87 441.418C171.72 447.01 175.384 454.598 177.013 458.279C178.642 461.96 180.193 465.372 180.462 465.861C180.73 466.35 181.552 468.213 182.289 470C183.025 471.788 183.921 473.925 184.278 474.75C184.635 475.575 185.572 477.825 186.361 479.75C188.371 484.662 189.923 487.502 190.773 487.828C191.713 488.189 191.72 489.5 190.781 489.5C190.385 489.5 187.408 490.385 184.166 491.466C178.294 493.424 177 493.473 177 491.737C177 491.385 175.255 487.644 173.122 483.424C170.988 479.203 168.592 474.288 167.795 472.5C166.999 470.713 165.12 466.663 163.62 463.5C162.119 460.338 160.104 456.063 159.141 454C158.179 451.938 156.707 448.788 155.872 447C147.734 429.594 136.371 407.817 131.39 400.085C130.918 399.351 130.186 398.141 129.764 397.397C129.342 396.652 127.929 394.549 126.624 392.724C125.318 390.898 123.92 388.92 123.515 388.327C121.422 385.259 116.757 379.171 116.082 378.625C115.014 377.761 116.099 377.819 118.313 378.744ZM171.605 427.398C175.335 434.516 180.5 445.692 181.513 448.833C181.852 449.887 182.286 450.975 182.477 451.25C182.892 451.849 187.049 464.808 188.412 469.75C190.197 476.223 191.615 482.907 191.346 483.581C191.166 484.031 191.066 483.961 191.04 483.368C191.018 482.883 190.778 482.096 190.506 481.618C190.235 481.141 188.325 475.688 186.262 469.5C184.199 463.313 181.928 456.675 181.214 454.75C180.501 452.825 179.618 450.35 179.253 449.25C177.923 445.241 171.624 430.312 169.338 425.75C167.27 421.623 164.001 414.51 164.009 414.154C164.023 413.537 167.722 419.987 171.605 427.398ZM1.00001 469.457V511L41.375 510.985C69.1135 510.975 81.4755 510.81 80.8725 510.459C80.39 510.178 76.9025 508.714 73.1225 507.206C69.3425 505.697 65.563 504.144 64.7235 503.755C63.356 503.121 52.851 498.816 47 496.492C45.7625 496.001 43.7375 495.196 42.5 494.705C41.2625 494.213 40.171 493.756 40.0745 493.689C39.978 493.621 40.531 492.737 41.3035 491.725C43.6275 488.677 42.8405 484.679 38.3565 476.75C34.9 470.638 25.8045 457.772 22.7775 454.712C22.0775 454.005 16.169 446.766 7.77351 436.332L1.00001 427.914V469.457ZM118.367 432.321C118.225 432.557 118.739 434.1 119.509 435.75C120.279 437.4 121.634 440.325 122.52 442.25C126.822 451.597 140.465 479.465 141 480C141.138 480.138 142.375 482.5 143.75 485.25C145.125 488 147.114 491.825 148.17 493.75C149.227 495.675 151.108 499.163 152.352 501.5C155.539 507.488 156.553 508.898 158.15 509.561C160.476 510.527 162.357 509.112 162.04 506.636C161.996 506.298 160.402 503.486 158.495 500.386C156.589 497.286 154.721 494.188 154.344 493.5C153.967 492.813 152.13 489.663 150.262 486.5C148.394 483.338 146.445 480.019 145.933 479.125C145.42 478.231 144.512 476.657 143.916 475.625C143.319 474.594 142.416 472.963 141.908 472C141.401 471.038 140.776 469.913 140.52 469.5C138.914 466.914 133.749 457.407 129.311 448.87C123.995 438.643 119.057 431.177 118.367 432.321ZM121.855 499.783C122.188 500.315 123.294 502.213 124.313 504C125.332 505.788 126.455 507.7 126.807 508.25C127.437 509.232 127.335 509.249 121.099 509.188C117.607 509.153 114.548 509.097 114.3 509.063C114.053 509.028 114.728 508.363 115.8 507.584C116.873 506.804 118.07 505.779 118.461 505.304C119.274 504.318 119.445 500.437 118.839 496.75L118.429 494.25L119.839 496.533C120.615 497.789 121.522 499.251 121.855 499.783Z" fill="black"/>
</svg>
